/* XPM */
static char *result[] = {
/* columns rows colors chars-per-pixel */
"64 64 242 2 ",
"   c #040203",
".  c #0B0405",
"X  c #0B0A05",
"o  c #05030A",
"O  c #0B050A",
"+  c #0C0A0C",
"@  c #18060A",
"#  c #130C0C",
"$  c #1C0B0B",
"%  c #0D0D12",
"&  c #070918",
"*  c #120D12",
"=  c #1F0C13",
"-  c #141112",
";  c #141114",
":  c #1C1414",
">  c #1A1419",
",  c #1F1A1A",
"<  c #270B07",
"1  c #250B0B",
"2  c #340C06",
"3  c #2A120A",
"4  c #38160B",
"5  c #230E10",
"6  c #211615",
"7  c #281314",
"8  c #231917",
"9  c #251C1B",
"0  c #291F1D",
"q  c #391A13",
"w  c #26211F",
"e  c #2A211E",
"r  c #352113",
"t  c #0B0E2E",
"y  c #0D142A",
"u  c #15172B",
"i  c #121A35",
"p  c #241D21",
"a  c #192436",
"s  c #262121",
"d  c #2D2322",
"f  c #2A2628",
"g  c #312625",
"h  c #322927",
"j  c #322728",
"k  c #352B2A",
"l  c #392E2D",
"z  c #3C302F",
"x  c #2E2F37",
"c  c #3E3332",
"v  c #3C3737",
"b  c #4A1607",
"n  c #44190B",
"m  c #591803",
"M  c #481D11",
"N  c #59230E",
"B  c #492014",
"V  c #572712",
"C  c #69280D",
"Z  c #722709",
"A  c #68310E",
"S  c #6C2C11",
"D  c #793815",
"F  c #5F3A2B",
"G  c #423635",
"H  c #453837",
"J  c #483A37",
"K  c #423738",
"L  c #453A39",
"P  c #493C3B",
"I  c #44403F",
"U  c #4C403E",
"Y  c #51423E",
"T  c #1C284E",
"R  c #27304F",
"E  c #373945",
"W  c #212863",
"Q  c #2D4971",
"!  c #4D4341",
"~  c #494546",
"^  c #524543",
"/  c #554946",
"(  c #5A4946",
")  c #564A49",
"_  c #5A4D4B",
"`  c #5D514E",
"'  c #494F5A",
"]  c #5E5251",
"[  c #52585B",
"{  c #61524E",
"}  c #625553",
"|  c #655856",
" . c #685A57",
".. c #6B5D5A",
"X. c #6E605E",
"o. c #5A5C64",
"O. c #455D79",
"+. c #546378",
"@. c #746663",
"#. c #646A75",
"$. c #726E72",
"%. c #9C522A",
"&. c #A85A36",
"*. c #B46F50",
"=. c #B78457",
"-. c #B69675",
";. c #CB844D",
":. c #C3875D",
">. c #D58B6B",
",. c #D59277",
"<. c #182DAC",
"1. c #2735B1",
"2. c #2F558A",
"3. c #36589C",
"4. c #1F44BB",
"5. c #3350AD",
"6. c #3847BB",
"7. c #3B56BA",
"8. c #50689C",
"9. c #747A81",
"0. c #4252B4",
"q. c #4559B7",
"w. c #4C6CB7",
"e. c #164DCE",
"r. c #2A49C8",
"t. c #3646C8",
"y. c #2B58C6",
"u. c #3757CA",
"i. c #244CD3",
"p. c #384ED5",
"a. c #2A57D6",
"s. c #3757D7",
"d. c #1B64D1",
"f. c #236AD4",
"g. c #3569D4",
"h. c #2673DC",
"j. c #365EE3",
"k. c #176DE2",
"l. c #2A79E7",
"z. c #347BE4",
"x. c #3773EE",
"c. c #465CC6",
"v. c #4554D4",
"b. c #5254D4",
"n. c #556CCF",
"m. c #4D76C9",
"M. c #4C69D8",
"N. c #4575D7",
"B. c #5977D5",
"V. c #6A75CD",
"C. c #446DEA",
"Z. c #596CE9",
"A. c #4778E8",
"S. c #5676E6",
"D. c #637EF4",
"F. c #8678E7",
"G. c #6F8B9A",
"H. c #3086EC",
"J. c #3686F5",
"K. c #5886D7",
"L. c #588FDB",
"P. c #6D8CCF",
"I. c #6C89D6",
"U. c #788BD6",
"Y. c #7598D8",
"T. c #77A4DF",
"R. c #4786EC",
"E. c #588DEC",
"W. c #4B88F5",
"Q. c #588BF1",
"!. c #4894F7",
"~. c #5597F2",
"^. c #6689E6",
"/. c #6A92EB",
"(. c #7C9BE5",
"). c #5AA5FA",
"_. c #7DB1EF",
"`. c #79AAF5",
"'. c #8A9192",
"]. c #AA988F",
"[. c #B6A497",
"{. c #8294A8",
"}. c #8299B4",
"|. c #97A3AF",
" X c #B3B1B5",
".X c #C69789",
"XX c #D29B8D",
"oX c #C9A79B",
"OX c #D5A791",
"+X c #DBB698",
"@X c #C6ABA3",
"#X c #C8B5AB",
"$X c #D8B8A9",
"%X c #C9BBB6",
"&X c #D7C5B0",
"*X c #EACDAC",
"=X c #8B98DA",
"-X c #A293DE",
";X c #95ABDC",
":X c #B0BACD",
">X c #8699E7",
",X c #8A93F4",
"<X c #89AAE9",
"1X c #98B5E4",
"2X c #90ACF0",
"3X c #95B7F8",
"4X c #ACB7E9",
"5X c #AAB9F1",
"6X c #C8BCC1",
"7X c #C5B9EE",
"8X c #9DD3DC",
"9X c #BEC3C8",
"0X c #ABC7D9",
"qX c #B2CEDD",
"wX c #95C3EA",
"eX c #84D2F7",
"rX c #BACBE7",
"tX c #A5C8F8",
"yX c #B8C8F5",
"uX c #B9D6F7",
"iX c #CAC8C9",
"pX c #C5C8D5",
"aX c #D7D1D8",
"sX c #E5D2C9",
"dX c #E8D9DC",
"fX c #EBE0D6",
"gX c #C5D3EA",
"hX c #C5C9F7",
"jX c #CBD7F7",
"kX c #CCDCFD",
"lX c #D4D6F0",
"zX c #D4DCF8",
"xX c #E0DCE3",
"cX c #DDE5EE",
"vX c #CDEAFB",
"bX c #D9E7F9",
"nX c #E9E3E7",
"mX c #F1ECEF",
"MX c #E7E8F7",
"NX c #ECF3FB",
"BX c #F4F4FB",
"VX c #F4F8F9",
/* pixels */
"d e e d h h l l d h d d d e d d z k c c j k s s f d g d 9 8 p 0 d 0 9 0 9 0 0 e 8 9 : 8 9 e w : k l z l l l w h d e w d 8 8 8 6 ",
"8 9 0 0 d e g h h g e d k k l k c K L K c c k c z k k k g d g 0 8 9 0 0 d k l k z k k k l z c z c c v c z c c v v c l l k h c J ",
"6 9 d h l l c K K K G G G v c c v H L H v H H L H L K H L L _ L 9 k l c c c G G J I L c z c c z K K K J J L H K J U L P L c _ } ",
"h l G G c K K H L K K K K L G G K H K K H L L L L L K G K K ` ! g G G G c G z v c K K c z H H K H v c c G c v P J K K K P K ` | ",
"k G L P K K K K L K H K K L K K L L H K K L L L L L K v G H _ ~ l P K K K P K v z l z z J c K K K K K v J c v P P K K v K P _ ] ",
"l c P L P K K L L K H G H L H L K H L K L L K P L H K K K P ` ^ z K c c K H H G c z l K v c c K K K c z H H v L L L P P P U ` | ",
"k G P v v K K K L K G v L L L K K H H K H K H H L L G K H P ] ^ l L K c c l z c H J P J G c c K K J P K J L L L v P P K P U ^ } ",
"l G L K K c v G K K H K K K L H K H H H L K H L L L K K L P ] ! z I G c l z c c I U I K K K K K c c v K L L L L P K H K G L / | ",
"j z K K G K K K L L L H L L L L H L L L G L J L H K K H L ^ _ P d c z c l K L K L U L v K K K H H K H U I K G K K K K H H P / } ",
"j z K K K L P P P P H H L L L L P L J L H J L L H P L H H P | ^ h l l z c K K P K L L U P L K K L K P J J U P I H J H K U J ] ` ",
"k G L L K K K L L L H H H L L L H P P J H L J L L H P H G ^ } ! z z v P U P U U c k l K P K L L J L H z H K P P U K H P P P } ! ",
"l G K K K K K P L P H H H H J J H H K J L G G L P L L H H P ( ! z v P J U ! U P z l j z K ! P L P L K K J z c P P K P J L L _ _ ",
"j z H H K K K K J L H K H L L L J G G G G G G z G G G G c G P l e h j j j j p g j k k l j j k H ! P J P L z K P P L J L L c G G ",
"p z L H K K L K J L K J L L L H J k $ $ < < < < 1 @ @ @ * # # # # 6 1 = 5 @ @ @ 5 5 1 O O & d k K / P L P L I P L G L L P L / ( ",
"9 k H L J P K K J J L P L L J H J k X @ < 3 < 3 2 3 $ : = 5 5 7 3 4 3 1 5 1 @ 1 < 1 $ @ O * z c z l c L P P P L P P L L P J / ` ",
"9 j K L K K P P K L L L L L H H J h X X 3 2 4 n n n 7 q q q B M M b b 2 2 < 2 2 2 3 5 @ . * z c G c c G L K K G H v L P L J ^ ^ ",
"9 l v L L L L L J H H H H H L H K j % # < 3 q n n 4 n n N V C V m m m m m b M m n n < + o - c c G l c l G P ^ P G G L K L L L G ",
"j z L L L L K H H H H P P P P L K j O O 3 4 r B n N N C C A S S S Z Z Z C S D D D S n +   - h l k c G G J ( / _ / ^ ! P P U U H ",
"H H H L K K L K H K K H H H H P L l = = 4 F F V V A D %.%.&.&.&.&.&.%.&.&.*.*.:.:.:.&.w o % l v c J G G G k k Y ` / ` } } ` @.) ",
"c G H K K K L K L H H H H H H H H l @ O J [. X[.-.=.;.;.:.>.,.,.,.,.XXOXOX+X+X+X*X*X-.e   % v ! l G G G H k h l L L U U ^ / @.| ",
"l c L K H G L H L L L P P K J J L z # . z  XmXnXdXsX+XOXXX.X.XXXXXOX@X#X#X$X$X*X*XfX].: X - L ) l z G G c c j k k p g p k j J U ",
"l G K K K v L L H H H H K J K K H z -   : G.lXmXnXnXsX$XOXXX.X.X@XoX@X#X%X#X$X&XfXsX[ X   , v P k l P L H L z G G k G G H k G P ",
"d g G G L L L L L P J H H J J J K G s O X f {.vXnXxXdXdXdXdXaXpX6X@XoX@X@X#X#X&X&X$.u . # h z z c c c G H ! J H G G G z K P L L ",
"d d c L L J J G H P K K K J P P H H c s + . f G.rXnXnXmXMXBXBXBXmXnXdXsXiXiX6X X$.9 X : d c z G K c c l l J U P H P H G K L Y P ",
"0 d G L P P L K L G L H L L P L H H H c p . . u +.:XBXBXBXVXVXVXBXBXVXfXaX9X9X$.u . - l v l k H H H G G G J P G P P H K c G L L ",
"0 0 c L P P L K L L J L L L L P H J G G z - X $ a  XVXVXVXBXgX1X<X0XbXcXcXcX%X' + # g L v l k v H H H H G G G G G G c K c c L L ",
"p 9 c P U H K K L L P L H L L H L J G G G 0 O # R 9XVXVXMX;X7.1.7.V.vXbXMXbX Xv X % l K c h c z G l G G G G G G G G G K G K ] ) ",
"g 9 G K L H K K L P P L L L H H H J G G G p . O #.nXVXVX1Xc.0.b.V.c.T.vXvXbXrX' o % d c l g c z G l G J J J G G l G G G z U ..( ",
"0 0 c H L L K K L L L U K K L L P L H G c 8   R :XVXMX4XP.n.D.F.V.1.6.1XvXvXkX}.a X w l j k K v z K K U Y L P G H H L H H Y { _ ",
"l l c P P L K K J P P L L K L K L L J l , % E :XBXMX4XP.I.tXkX7XF.6.<.c.<XjXvXgX{.x X 8 9 p j K K K G G G G G G G L J L L P Y ( ",
"| | } ] / ! U H Y U U U P P ^ ! Y ^ H , % E |.mXbX;XP.=X2XyXzXzX-XZ.t.1.7.Y.tXuXuXP.i O 8 K ] _ / _ ( ^ Y ) P L Y ( ] | { ( { _ ",
"_ ] ] ] ) / P U ^ Y U U ^ Y / / _ ! p & x |.cXMX5XB.P.>X4X4XrXhX5X,XZ.r.1.7.Y.tXuXuX9.t o 9 ! _ _ ] ] ` _ _ ^ ^ _ _ ) ^ ( Y {  .",
"e 9 9 8 0 p g h e 0 9 9 p 0 d 0 s % X k |.MXlX7X>X/.2XtXhX7X-X,X,X,X,Xv.6.1.7.<XtXuXwXQ & . % 0 l k l z k h e d h h d d 9 8 9 0 ",
"9 0 g g k l c z c k j l G c k , - X , G.cXlXhX-XU.3XkXNXlXV.v.s.D.,X>XD.B.t.<.0.3XtXtXT.R o   + s v U H P c c c H G c c l h k G ",
"6 9 G c G G l G l c G G L L g + X X [ aXcXhX4XV.V.yXMXMX7Xn.r.r.Z././.(.=XS.r.<.c.`.3X3X8.t o   X g c G c c z v c c v G L P _ ] ",
"k c G G G G l l c c G v G G p     & '.cXlXhX=X5.q.4XzXzXhXV.y.t.v.C.D.,XY.(.n.<.<.s.`.3XY.W &     d L H J J H U J U L G L U _ } ",
"G G L K G G G G c c c G G L d   o a  XbXzXhXV.1.3.;XlXgXyX4XV.c.v.s.A.I.(.>X^.r.1.t.n._.`.3.&     w G J G J J J P P L H I P } | ",
"G G L L G l G G G G c L L P f     E 9XcXzXjXV.1.4.P.gXgXrXgX1Xn.p.s.u.N.Y.T.^.j.t.0.c.K.`.w.t o   w U J G J U J L L L H H U ` } ",
"G z z c G l l G c G G K G G w     [ qXlXzXhXV.4.4.7.=XgXgXqXgX;XZ.p.v.c.K.L.Q.C.s.u.5.K./.w.t o X d I G J G G G H H c c K U ] } ",
"G G G G G G J P G z G L L L s     #.gXgXzXyXB.r.y.r.N.1XqX0X0X0X<XZ.v.u.a.j.W.A.j.s.f.g.K.K.T o X e I G J G J U P L H H K P | } ",
"e h L G G L G L G G J P ^ U d .   #.qXgXvXtXI.7.r.u.s.A.wXqX0X0X4X2XS.i.e.i.s.x.g.s.s.g.B.m.T o . d H P J K K L P H H H L Y ) } ",
"h l J J H J G k G G J P J P h + X o.aXjXkXyXI.7.y.u.M.N.R._.8X8X8XwX~.a.e.a.p.u.s.s.j.f.A.m.T O . p L H P P P P P L P H L U ] | ",
"P ( ` ^ U J J z H H G z G l h + o x  XbXvXjX(.g.r.e.n.E.h.h.~.eXeX).z.f.y.y.y.s.j.j.j.s.n.q.i o @ g P P P K P P L P L P K U ) ( ",
"g k U _ { _ ^ P J H c z G H G d - % o.rXkXkX4XK.d.e.f.H.H.k.R.).J.l.h.f.d.d.f.l.l.x.S.B.b.Q & * p z K J P J J K J P P L L U _ ` ",
"8 0 e e k U _ _ ! L G G L ! ! K h % > +.rXkXhX5X/.H.h.l.H.l.J.l.J.J.H.H.h.h.h.J.W.Q.S.w.Q t * j L L P P P H P P K P J J L H P P ",
"9 8 9 9 9 0 h G ] | ) ! L P L K G h * > +.:XuXuXtX).H.H.J.x.x.J.!.!.!.J.!.!.E.~././.8.T & @ g L L L L P P P P L J J K L L L Y U ",
"9 0 8 8 8 8 0 0 d L ] } ) ! L P J P h % > ' {.:XyX_.!.R.W.W.W.W.!.!.).).!.!.~.L.m.2.u O = p L L J L P L J P P P P K L K K U ] _ ",
"8 8 8 8 9 0 0 9 0 s g L | X.! G v L K l ; % p E ' O.2.8.8.q.3.3.3.3.3.2.Q Q Q a i & O = g c K K L L J L P P P P P P L K P ^ ( P ",
"8 9 e e e e w e e e 8 : g / | P d h k k h - O . . + ; y i i t t t t t & % + o . .   * j K K L H L L J P J L P J J G J H J P J J ",
"8 e e e e e e d e w w 8 : 9 l ^ d g z K K 0 + + . .   o & o @ O . . . .   .       . 0 c G K L H H H P J J H L L J H J H G P P Y ",
"8 8 9 e l l z l h e d w : : , s v c G K v k 8 8 8 : > , > 6 6 6 @ = : : : : : - : w z v c c c c G H J P L P L U P P P J K H P P ",
"w e 9 e I v v c l z z z e , 9 h U J v v G G G c c K H G K G L L d g v P L H J K P H P L K c c G H J J J H P L P P J K L J P P J ",
"w d w w I v c v v z c K g 8 0 k / ) U P P P J L L P G G L ^ } ] d g G G H H K G K J K K K L L U L L L L L L L L K L L L K P ^ P ",
"f s s s v I I I I c K K g d g G L L G G L P L G c G G G G L ) ^ g g G G K K K c c K K P L P H K K H K K L L L K L P L K P _ _ ^ ",
"f s w s v ~ ! I ! I K v g k z l l l l c v K G G G G H G c G L U d g c c v K c c v K K K H L K K K G G L P P L L K L L L K K P P ",
"d w w w I ~ ~ ~ ~ ! U c 0 l z G c l G G G G G G v J L v G v G ^ g d l c J G c K H K J I P P H G H G H L U P L P L P P L L K K P ",
"w , w w z I ^ ~ ~ ^ I h e z G c c c G v G c G G L P L G G G G J d 0 G l J L L L G G G G G H H G K J J J P J L L L P P L K K L J ",
"w w w w f I I ~ ~ I c w e z c c c c c G J G G G J H G J G G J J d g l l J ^ ! P G G G G P P P H U Y J J J J P J U U U Y L J L G ",
"w w w : w w h c c l e g l z z v G c G G G G G J J G G J G J Y { g 0 k G ! ^ U L G G G G J P H J J P G G K G J J K J L L K K  .( ",
"w , , : 6 : 8 8 , 8 w z z G G I J J J P L G G G L G J J J J {  .g 0 l G ^ ) ! l j G G G G H L J J J G G G G J G H H J H J Y ..{ ",
"w 8 w w 8 , - : : 8 d l z c c c G G H G P P H J J J H G Y J { ..g 9 G U ) ) ! k k G J J G G G G G H J J J J H P P F J J J P {  .",
"g h l z z z 9 : : g z c z z c G z c G G H J G G G J J G Y J ( { g g c ^ ( ] z g 0 G Y Y G G J J J G J J U ^ L P P P P J L P (  .",
"] ] { | } | l : 9 G ) U c / ` ` ( ( ( { / _ U Y ^ ( _ ( Y ( { { _ _ ` } _  .g 6 0 G ] ` G J ( ( { { { } { | ( Y ( _ X.@. .X.@.{ ",
"] _ | } ) Y g 8 e G I J I ) _ _ } } | | { _ ( ( {  .@...| | { .. .}  .X.| } l g j K ^ Y F { { {  ._ { ( ( ( L Y ( ( ..( { { { ( "
};
