/* XPM */
static char *_bb87773feee4fd7decd47f611036aa836zJAa0AZv7j4PXk[] = {
/* columns rows colors chars-per-pixel */
"64 64 174 2 ",
"   c #140E0B",
".  c #16110E",
"X  c #19110E",
"o  c #161414",
"O  c #1B1614",
"+  c #1C1916",
"@  c #161618",
"#  c #1A1619",
"$  c #1D1C1C",
"%  c #221715",
"&  c #221916",
"*  c #291B17",
"=  c #221D1D",
"-  c #291E1C",
";  c #23211E",
":  c #2B211E",
">  c #1E1E20",
",  c #221F20",
"<  c #281F21",
"1  c #242223",
"2  c #2A2525",
"3  c #2B2926",
"4  c #272628",
"5  c #2C2629",
"6  c #2D2A2A",
"7  c #322625",
"8  c #322926",
"9  c #302729",
"0  c #332C2C",
"q  c #392E2D",
"w  c #36312E",
"e  c #39312E",
"r  c #352E30",
"t  c #382F30",
"y  c #363131",
"u  c #393133",
"i  c #3A3532",
"p  c #3A3335",
"a  c #3C3334",
"s  c #3A3434",
"d  c #3B3535",
"f  c #3A3635",
"g  c #3A3436",
"h  c #393534",
"j  c #3E3636",
"k  c #3C3433",
"l  c #3E3936",
"z  c #3F3A37",
"x  c #3D3835",
"c  c #3E3936",
"v  c #3E3538",
"b  c #3D3739",
"n  c #3F3C3A",
"m  c #422F29",
"M  c #40322F",
"N  c #413635",
"B  c #413936",
"V  c #4C3B35",
"C  c #403738",
"Z  c #403738",
"A  c #413839",
"S  c #433A3B",
"D  c #41383B",
"F  c #423D3A",
"G  c #413C39",
"H  c #443B3C",
"J  c #433D3D",
"K  c #453C3D",
"L  c #433B39",
"P  c #493F3D",
"I  c #493F3E",
"U  c #493E3B",
"Y  c #43423D",
"T  c #48403E",
"R  c #4A403E",
"E  c #4B413E",
"W  c #4F483E",
"Q  c #56443C",
"!  c #4C4240",
"~  c #4D4342",
"^  c #4D4749",
"/  c #534644",
"(  c #584740",
")  c #544B46",
"_  c #5B4B45",
"`  c #504748",
"'  c #574C4A",
"]  c #554B4A",
"[  c #584D4B",
"{  c #5C4E4B",
"}  c #5D504A",
"|  c #5C524D",
" . c #5E5254",
".. c #5F5556",
"X. c #5C5352",
"o. c #624E47",
"O. c #624F48",
"+. c #63524C",
"@. c #6A534C",
"#. c #60594F",
"$. c #625753",
"%. c #605655",
"&. c #625552",
"*. c #695651",
"=. c #635852",
"-. c #655955",
";. c #6C5B55",
":. c #675D5E",
">. c #645C5A",
",. c #685D59",
"<. c #6A5D59",
"1. c #715E58",
"2. c #66625C",
"3. c #6B605A",
"4. c #6C625E",
"5. c #74635D",
"6. c #7A655E",
"7. c #695F60",
"8. c #6F6563",
"9. c #706563",
"0. c #716565",
"q. c #756662",
"w. c #796761",
"e. c #736866",
"r. c #736A65",
"t. c #776A64",
"y. c #756A66",
"u. c #746A63",
"i. c #7C6B65",
"p. c #756A68",
"a. c #746A6B",
"s. c #736F6C",
"d. c #796E68",
"f. c #7A6E6E",
"g. c #786E6F",
"h. c #7C6D6A",
"j. c #77736F",
"k. c #79706B",
"l. c #7B706C",
"z. c #7A736C",
"x. c #7F7472",
"c. c #826C67",
"v. c #816F6A",
"b. c #84736C",
"n. c #89756F",
"m. c #807571",
"M. c #857570",
"N. c #8C7770",
"B. c #857A74",
"V. c #8D7B75",
"C. c #857C7B",
"Z. c #917C74",
"A. c #8E8077",
"S. c #87827C",
"D. c #8B837D",
"F. c #96837C",
"G. c #9D867E",
"H. c #8D8381",
"J. c #968F87",
"K. c #9D8A84",
"L. c #9A8F8B",
"P. c #97938A",
"I. c #9F9089",
"U. c #9F9B92",
"Y. c #A6938D",
"T. c #A9968F",
"R. c #AC9791",
"E. c #A29D97",
"W. c #A99C96",
"Q. c #A4A19C",
"!. c #B7A39C",
"~. c #B6ABA7",
"^. c #BCB8AF",
"/. c #BCB7B1",
/* pixels */
"$ $ $ $ $ 1 1 $ $ $ $ $ $ $ > 1 $ $ 1 $ > > , , 1 , > $ = 1 1 $ $ $ , 1 1 = $ $ $ $ $ $ = = = = = = = = = $ $ $ $ O & $ $ O O O ",
"$ $ $ $ $ $ $ $ 1 > $ $ 1 1 > > $ $ $ $ $ $ $ $ , > $ $ , 1 1 $ $ $ = , 1 , $ $ 1 , , , = , 1 1 = = , = = = & = = & = & = O O o ",
"$ $ $ $ $ $ $ 1 1 > $ > > > > > 1 1 $ $ > > > > > $ $ $ 1 1 1 , $ $ , 1 1 1 1 = 1 1 1 , = 1 1 , ; 1 1 = = = = = = = - - - = = & ",
"1 $ $ 1 1 1 1 1 1 > > 1 > $ $ 1 1 1 1 1 1 1 1 1 , > $ , 1 1 1 , , 1 1 1 1 1 1 1 1 1 1 1 1 1 1 1 1 1 1 , = 1 1 , = = - = = & = = ",
"1 $ > 1 1 1 1 1 1 1 1 1 1 $ 1 4 4 1 1 1 1 4 4 1 1 1 1 1 1 1 1 1 1 1 1 1 1 1 1 1 1 1 1 1 1 1 1 1 1 1 1 ; = 1 1 1 1 , = $ , $ O o ",
"$ > 1 1 1 1 1 1 1 1 1 4 1 1 1 4 1 1 1 1 1 4 4 1 1 1 1 1 1 1 4 5 1 1 5 1 1 1 1 1 1 = 1 1 1 1 1 1 1 1 1 = $ = , = = = = = 1 $ o o ",
"$ > 1 1 1 1 1 4 1 1 1 1 1 1 1 1 1 1 1 1 1 1 1 1 1 1 1 1 4 1 4 4 1 1 5 1 1 1 1 1 1 , 1 1 1 1 1 1 1 1 1 = $ $ = $ = = 1 1 5 , & - ",
"$ $ 1 1 1 1 4 1 1 1 1 1 1 1 1 1 1 1 1 1 1 1 1 1 1 1 1 1 1 1 1 1 1 1 1 1 1 1 1 1 1 1 1 1 1 1 1 1 ; 1 1 ; = , 1 1 1 1 1 5 d s a A ",
"$ $ $ > 1 4 4 , 1 = = , 1 1 1 1 1 1 1 , 1 1 , , , > > , , , , , = 1 1 , $ , 1 , $ = 1 1 1 , , 1 5 ; = = 1 , , , 4 1 = < ` :.7...",
"$ $ $ > 1 1 5 1 1 1 1 1 1 , 1 1 1 1 1 1 1 4 4 4 1 1 1 1 1 1 1 1 1 1 1 1 , 1 1 1 1 1 1 1 1 1 5 5 6 6 5 5 5 5 5 5 5 1 - 3 ..f.p.%.",
"$ $ $ $ 1 5 6 6 4 5 5 5 1 , 1 1 , 4 5 1 4 4 5 5 5 4 4 4 4 4 5 1 1 5 1 1 1 1 1 1 1 1 1 1 5 5 6 0 6 6 6 3 5 5 5 4 2 < & 2  .f.0.' ",
"$ $ $ 1 6 y t t 0 0 0 6 5 1 1 1 1 4 4 1 1 1 1 1 4 4 1 1 1 4 5 1 1 1 1 1 1 1 5 5 1 1 1 1 1 1 5 5 2 5 2 = = , , , < - O * / r.9.{ ",
"$ $ + 1 0 h d j a d u 0 0 6 6 6 5 5 4 1 , , , , > > > > , 1 1 1 1 1 1 1 1 1 5 5 1 1 1 1 1 1 1 1 2 2 1 = $ = = = , = O & P 8.p.&.",
"$ $ + 1 0 y d J A A s y y y y w 0 0 5 , , 1 1 4 > > 1 1 1 1 1 1 1 1 1 1 1 1 1 5 5 5 5 1 1 1 1 1 2 2 5 1 = = , = 1 , O & P r.k.,.",
"$ + $ ; 6 0 u H K C e w h z z d s t 6 , = , 1 5 1 1 1 1 1 1 5 1 1 1 1 1 1 1 1 5 5 5 5 1 , 1 1 1 1 1 1 1 , = 1 1 1 - O & ~ k.m.3.",
"$ $ + 1 0 0 t A A j 0 0 h G G z H C 0 , # # > 5 4 1 1 1 1 1 1 5 5 1 = = = 1 1 5 1 5 5 , = 1 1 1 = 1 1 , = = , 1 2 - O & P y.h.=.",
"$ $ $ 1 0 y u v A a 0 2 8 z G z T j 0 = # @ > 4 1 1 1 1 1 1 4 1 1 1 = = 1 1 5 1 1 1 1 1 , = = 1 1 1 1 1 = = = = 1 ; O & T y.y.} ",
"# $ $ 1 t y s v A j 0 3 0 j A A K j 0 1 $ $ $ 1 , 1 1 1 1 1 4 1 1 1 1 1 1 1 1 1 1 1 1 , = $ , 1 1 1 1 , = = = = = , O & ! f.h.{ ",
"o O $ 1 0 y u j A H a 0 w j z B A k 0 1 = $ , 1 $ $ 1 1 1 1 1 1 1 1 1 1 1 1 5 1 1 1 1 1 1 , 1 1 1 1 1 , = = , 1 1 = O - ` x.m.,.",
"o + $ 1 0 y u j A K j 0 h z h z B k 0 2 = , 1 1 $ , 1 1 , 1 1 1 1 1 1 1 1 1 1 5 1 5 5 1 1 1 1 1 1 1 , , = = , 1 1 , O = ] C.C.,.",
"o + $ 1 0 y u d j A e 0 u z j z z z u 6 , = > 1 $ $ , , , 1 1 1 , , 1 , $ = 1 1 1 1 1 1 1 , , 1 1 1 1 1 1 , , 1 1 1 # # ^ H.S.X.",
"o O $ 1 0 y 0 u a j 0 8 w z G G G G h 3 = $ 1 5 1 1 , , , 1 1 , = = = , $ $ , = 1 1 , $ $ $ = 1 1 1 1 1 1 1 1 1 1 , # = ^ C.C.%.",
"+ + + ; 0 y 0 u j j e 0 w z G Y G z w 5 = = 5 y 5 5 5 5 1 5 5 4 1 1 1 1 , 1 1 1 1 1 = $ = = , 1 1 1 1 1 1 1 1 1 1 $ @ 1 b X.>.| ",
"= $ + ; 0 y y d B B k 0 0 h G B G z w 6 5 1 6 y h y 0 6 5 5 5 5 6 5 5 1 1 1 1 1 1 1 1 1 1 1 , 1 1 1 1 1 $ $ $ $ > $ $ $ # 1 y j ",
"O + = 5 w k k Z B A j e w h z z B z h 0 5 4 6 y y y w 6 1 1 5 5 0 6 6 5 = = 1 1 1 1 1 , , 1 , $ , 1 1 , $ $ $ $ > $ @ o @ O & + ",
"o O $ 2 w h k B A B k 0 0 h z G F B h 0 4 1 6 y y r 6 5 4 5 0 6 6 5 5 1 $ = 1 1 1 1 1 1 1 1 1 $ = 1 1 , $ $ > $ > @ @ o o O + o ",
"O + $ 2 0 h j A A B u 0 0 j G K F G h 0 5 4 5 t y 0 5 1 2 0 t 0 5 5 1 = $ , 5 5 1 1 1 1 1 1 1 , 1 1 1 1 1 1 1 $ $ $ @ $ $ 3 6 ; ",
"o + + 1 0 e k j A j u e e k z A G B h 0 5 4 4 0 0 0 3 1 2 0 t 0 5 5 5 1 $ 1 1 1 1 1 1 1 1 , , , 1 1 1 1 1 1 1 $ > $ o $ h ! G w ",
"O O + ; 0 e u a A C a u e u k k A B u 0 5 1 4 0 0 0 6 2 2 0 0 0 5 5 5 1 , , 1 1 1 , , , , = = , $ = , , = $ $ $ $ @ o 1 >.j.2.` ",
"+ + & 2 0 k j j A C a t e u j B K B t 3 1 , 5 t 0 0 3 2 3 0 0 6 6 6 5 1 1 , , 1 1 , $ $ = = = , $ = , , = $ = , > $ @ 3 k.S.u.) ",
"+ + & 2 u j C A Z j k q e j A A T A t 3 2 , 3 u u 0 6 6 6 0 0 6 6 6 6 1 1 1 1 5 1 1 = = , 1 1 , 1 1 1 1 ; = 1 1 1 $ + 3 >.z.4.) ",
"+ O + 2 t j j C Z j u 0 e j B j F B u 0 3 2 5 t u 0 0 8 6 6 6 6 0 0 6 5 5 1 1 5 5 1 1 1 1 1 1 1 5 1 1 1 = = $ = 1 $ @ $ z [ ) L ",
"& O & 2 0 q 0 e Z A u 0 0 t 0 0 B B u 0 3 2 5 0 u 0 3 5 3 0 0 0 0 0 6 5 1 1 1 5 5 5 5 , $ 1 1 = 1 1 1 1 ; ; = $ $ $ @ @ $ 5 ; o ",
"O O & 2 e e 0 0 k j a t 0 0 0 0 A B u 8 2 - 5 0 y 0 5 2 2 0 w 0 0 0 6 4 1 1 1 1 1 5 1 1 $ 1 1 1 1 1 ; ; ; 1 1 $ $ $ @ o + $ o . ",
"+ o O 2 e u 0 0 u a a u k k u a P B q 7 2 < 5 0 0 0 3 2 3 0 w w 0 0 3 2 ; 1 1 1 1 1 1 ; $ $ ; 1 1 1 ; $ $ 1 1 1 > $ @ @ o . . o ",
"+ O O 2 0 u k j j a u u j A A A T L k 0 3 2 2 6 0 0 0 3 6 0 0 0 0 0 3 1 = ; 1 1 1 ; 1 1 $ $ = 1 , 1 ; $ $ $ 1 1 > @ @ @ . . & = ",
"O O + : 0 e j A C j u t u j C j P P L k 9 < 2 8 0 y 0 0 6 0 8 3 6 0 6 2 = = 1 1 1 ; 1 1 1 1 1 1 1 1 1 ; $ $ $ ; $ $ @ $ 0 h w 8 ",
"X o = 2 0 e u j a j j u q k j u F L Z q 3 2 7 t 0 0 0 6 6 0 0 0 0 0 0 3 1 1 5 6 3 5 1 3 3 5 5 1 1 1 1 1 ; ; $ $ $ $ o 6 j.S.=.B ",
". O = 2 0 e u u u j j u t j j u Z A k 8 2 2 0 t t 0 3 3 0 0 t u 0 0 0 6 5 5 3 6 6 6 6 3 5 5 5 1 1 1 ; 1 1 ; ; ; ; $ o n Q./.B.W ",
". O = 6 0 e q u u j j u u C A 0 k A B q 2 2 5 t t 0 2 2 9 0 0 t 0 0 0 6 6 5 3 6 6 6 6 3 2 5 6 5 6 1 1 1 1 = = 1 1 + o Y E.^.D.W ",
"o o & 2 0 u a j j a u t u A B k B L A e 3 2 9 s 0 0 9 3 3 0 0 0 0 0 6 2 1 2 5 5 6 6 5 1 = 1 5 3 5 5 3 1 1 ; ; 1 1 $ + w z.U.D.#.",
". X & 7 0 e u j a j u 0 0 j B k Z L Z q 3 2 2 0 0 0 9 9 0 0 0 0 0 0 6 5 1 1 2 6 3 3 3 1 ; 1 5 3 1 1 ; 1 1 ; $ ; 1 ; + 3 2.P.J.z.",
"O O & 2 0 0 q u k k k q 0 k j k j L j 0 3 < 4 0 0 0 6 0 0 0 0 0 0 0 0 6 2 1 2 6 3 3 3 2 ; 1 5 5 1 1 ; ; 1 $ $ ; ; $ + ; G -.u.u.",
"= % & 2 0 0 0 q u j Z u e Z B k Z F Z 0 7 2 4 0 0 0 6 6 0 0 t u 0 0 0 0 5 1 5 6 6 6 6 2 ; 1 5 5 5 1 1 1 ; $ $ 1 ; $ + + + + : e ",
"& % = 8 k k e q k Z Z e q Z L k Z K B 0 3 2 1 t t 0 5 5 6 0 0 y y 0 0 0 5 2 2 6 6 6 6 2 ; 1 5 5 3 1 1 1 1 1 1 ; $ $ @ @ o o + & ",
"O O = 8 k k k j k Z N 0 0 k L k Z L Z 0 3 < 4 0 t 0 6 6 6 0 0 0 w 0 0 6 5 5 5 5 5 6 6 2 ; 1 2 2 1 1 1 1 1 3 3 1 $ $ @ @ + + o . ",
"& & * 7 0 e e k k B Z q 8 k L Z k B B e 5 4 5 t 0 0 0 0 0 0 t 0 0 0 6 3 5 6 6 5 5 5 5 2 ; ; 2 2 1 1 1 3 5 6 5 1 > $ $ $ $ + + + ",
"* & & 2 q k q 0 k L L e 0 k L B u k j e 0 3 0 t r r 0 0 0 0 0 5 0 0 6 5 5 6 6 5 6 6 6 2 = ; 2 5 6 1 1 5 6 6 6 1 $ $ > 1 1 $ = = ",
"& % % : e k 0 0 k P P k 0 Z F B Z k t 7 3 2 6 0 0 0 5 4 9 t 0 6 6 6 5 5 3 3 2 ; 2 6 6 2 1 5 5 1 6 6 6 6 8 6 2 1 = $ 1 1 1 $ 1 $ ",
"% % & 2 e k q q k Z Z q 0 e B Z Z j u 0 3 ; 1 5 5 5 2 < 3 6 5 5 5 6 5 4 1 - ; 2 : : 1 = = 1 1 ; 1 1 ; ; ; ; ; ; = 1 1 1 1 ; $ + ",
"% O & 2 q q q q k k q 8 8 q Z N Z Z N 0 0 1 1 5 9 5 2 2 3 5 0 3 6 6 5 4 - - ; 2 ; ; ; ; ; 1 1 = = = ; ; = = ; ; 1 = $ $ + O o + ",
"* O & 2 q q q e k k q 8 8 q k N k Z B e y 0 6 6 0 9 9 0 0 0 0 0 0 0 0 6 2 1 2 2 6 2 2 2 2 5 5 2 ; ; 2 2 : 2 2 2 1 = $ = $ + O + ",
"= O & 8 e q 0 q k k e 0 8 e k e e Z k 0 w 0 0 0 t 0 9 0 0 0 y w 0 0 d y 5 - 2 6 0 6 6 3 2 6 0 0 2 3 2 2 2 6 6 6 5 ; $ 1 F F q : ",
"& X O 8 k q 8 0 k k N e e N B N k L k 8 0 w 0 0 0 0 7 0 0 e u u 0 t d y 2 ; 5 6 6 6 0 6 6 0 0 0 2 2 5 2 2 6 6 6 5 $ $ K H.B.{ V ",
"& . + 0 k 0 0 q k Z B Z Z F R F L P j 0 u 0 8 0 0 0 0 0 e u k k u 0 y 0 5 1 6 6 5 6 6 6 0 0 0 5 2 3 3 6 3 3 5 5 1 o - ,.~.W.w.( ",
"= o + 0 k 0 q k N Z L L L F U L B F B e k 0 0 0 0 t 0 0 e u q e 0 0 y 0 5 5 6 y 6 5 3 5 6 0 0 2 3 3 6 6 3 1 5 5 6 o = &.L.I.b.+.",
"= + + 6 j e 0 k e k j j Z B B B k B k 0 Z t 9 9 t t 0 0 a 0 q 7 3 0 d u 0 6 5 5 5 1 1 1 5 6 6 5 3 3 3 3 5 5 5 6 6 - & e y.M.i.w.",
"o o + 0 B 0 2 8 q u k e q q 0 e e e 7 - 0 0 3 2 5 9 9 q 0 8 8 7 3 0 0 0 6 5 5 2 5 1 1 = = = = = ; ; ; = = - - - 5 2 & - U 5.b.b.",
"X   X 2 q 2 * 7 8 8 8 8 8 8 8 8 0 0 - & 2 9 3 2 - - - 3 - - 2 7 2 2 2 : = = = ; - = $ $ = $ O $ O o . o .   X O - : * % - _ v.b.",
"- % & 8 e 7 7 q q q q q q q q 0 e 8 - - q Z u 3 2 - & : 2 2 2 8 7 3 2 = & & = : = & + & = $ O $ O   X & & O & - - - * * : ( 1.;.",
"&._ ) } { U N V / _ { { / E V N Z 8 : 8 I ' ~ q 7 2 2 e ~ P N N q 8 8 8 q q M N q 8 8 8 1 $ = 1 t q N E { -.&._ N 7 % * V ;.1._ ",
"B.l.h.b.v.6.5.5.i.v.M.b.q.<.| / F u e L  .>.[ A 8 0 k ` 4.>.{ { { _ ' +.;.6.w.q.{ } { F 0 = 5 0 T | q.V.K.K.F.V.i.*.{ ;.F.V.*.m ",
"i.w.6.6.w.w.w.i.c.v.b.v.w.5.-.) U L F E &.&.] P e 0 A | 4.4.-.;.<.5.t.n.F.K.F.N.i.b.q.~ k 2 6 z ] ,.V.R.!.T.F.Z.F.N.b.V.Y.n.O.V ",
"( Q Q Q ( o.@.*.;.*.*.+.+.*.{ U T G N L / _ / T L 0 N | -.,.&.+.5.q.b.F.T.Y.Z.6.N.A.t.U Z 2 0 K { -.w.F.R.G.6.@.c.N.n.6.6.+._ +."
};
