/* XPM */
static char *_a62007a83344e64d56ce37582e4ad260tv1Blo1znBYqand[] = {
/* columns rows colors chars-per-pixel */
"64 64 158 2 ",
"   c #0D0302",
".  c #120807",
"X  c #160C0B",
"o  c #1A0E0D",
"O  c #1A110F",
"+  c #190F10",
"@  c #171111",
"#  c #1D1413",
"$  c #1E1916",
"%  c #1B1718",
"&  c #1F1A19",
"*  c #211615",
"=  c #231916",
"-  c #281916",
";  c #221718",
":  c #251C1A",
">  c #291E1D",
",  c #2A201E",
"<  c #231F20",
"1  c #262222",
"2  c #2D2322",
"3  c #2E2926",
"4  c #2D2929",
"5  c #322625",
"6  c #332826",
"7  c #382A27",
"8  c #312728",
"9  c #352B2A",
"0  c #3A2E2C",
"q  c #36312E",
"w  c #3C302F",
"e  c #392F30",
"r  c #373131",
"t  c #3D3332",
"y  c #3E3936",
"u  c #3E3939",
"i  c #41332E",
"p  c #423635",
"a  c #493735",
"s  c #453837",
"d  c #493A37",
"f  c #413738",
"g  c #463A39",
"h  c #483A3A",
"j  c #493B3A",
"k  c #493B3B",
"l  c #483A39",
"z  c #483D3B",
"x  c #4B3D3A",
"c  c #4A3C3B",
"v  c #493E3A",
"b  c #483C3C",
"n  c #493D3D",
"m  c #4A3C3C",
"M  c #4B3D3C",
"N  c #4B3D3D",
"B  c #483E3C",
"V  c #493E3C",
"C  c #483E3D",
"Z  c #4A3F3D",
"A  c #493F3E",
"S  c #4A3E3E",
"D  c #4B3F3F",
"F  c #4C3C3C",
"G  c #4C3E3D",
"H  c #4D3F3E",
"J  c #4A3C3B",
"K  c #46413F",
"L  c #4B403E",
"P  c #4B413F",
"I  c #4C413D",
"U  c #4C413F",
"Y  c #4E403F",
"T  c #4D403E",
"R  c #52433E",
"E  c #474242",
"W  c #4B4140",
"Q  c #4A4240",
"!  c #4C4040",
"~  c #4D4141",
"^  c #4F4140",
"/  c #4D4240",
"(  c #4C4241",
")  c #4E4341",
"_  c #4E4242",
"`  c #4F4442",
"'  c #4E4443",
"]  c #4F4544",
"[  c #4D4241",
"{  c #4C4847",
"}  c #4D4948",
"|  c #514342",
" . c #504543",
".. c #524443",
"X. c #504444",
"o. c #514545",
"O. c #514644",
"+. c #524745",
"@. c #524646",
"#. c #544645",
"$. c #554746",
"%. c #524543",
"&. c #544947",
"*. c #574947",
"=. c #554A46",
"-. c #554846",
";. c #5B4A46",
":. c #564A4A",
">. c #554A49",
",. c #584A49",
"<. c #5A4C4B",
"1. c #584C4C",
"2. c #5B4D4C",
"3. c #5C4E4D",
"4. c #5D4F4C",
"5. c #5B4D4B",
"6. c #5F514F",
"7. c #5E504C",
"8. c #5E5351",
"9. c #5F5353",
"0. c #5F5452",
"q. c #5E5251",
"w. c #60524F",
"e. c #61524D",
"r. c #615352",
"t. c #635552",
"y. c #615654",
"u. c #625755",
"i. c #645655",
"p. c #655756",
"a. c #625553",
"s. c #685654",
"d. c #645957",
"f. c #675957",
"g. c #655956",
"h. c #685A57",
"j. c #6A5A55",
"k. c #675958",
"l. c #655A58",
"z. c #665A5A",
"x. c #675C5A",
"c. c #655B59",
"v. c #685A59",
"b. c #695B5A",
"n. c #6B5D5A",
"m. c #6A5D5B",
"M. c #6F615E",
"N. c #6C615F",
"B. c #71635E",
"V. c #6D6260",
"C. c #736563",
"Z. c #766865",
"A. c #7A6A66",
"S. c #756A69",
"D. c #7B6E6C",
"F. c #857574",
"G. c #897A75",
"H. c #857A78",
/* pixels */
"2 2 , 2 9 6 0 e 8 9 2 8 2 > 2 > t 9 t t 8 9 < < 2 2 2 2 : = > > 8 , : > = > : 2 # : @ # = > : X 9 9 w 9 9 w : 8 2 : : 8 * * * o ",
"= : , = 2 > 8 2 2 2 = 2 8 0 e 9 t f B s t t 9 t e 9 9 9 2 > 2 = # = : > 2 9 t 8 t 0 9 0 t t f t f f g t w t t f f f w 9 0 6 w ( ",
"# = 2 6 w 9 f z B B s s f f t t f f b g f g g b g B f m ( g z.] O t w t f f z g B B B t t t t w f f f B B B B f c L g I c 0 u.c.",
"6 t f g t f f s g f f f f g f f f g f t g b f b g g g t f t 9.o.= W t f t t 9 t t g f f 0 z f s g f w t t w f B z f p f B f 9.u.",
"9 f z B f g f f g f g f f g f f g g g f f g g g g B f f f t u.o.9 ( f B f W B t t 9 0 0 B t s f g f f f g t t g B f f t f s 4.d.",
"w t B g B f f g g f g f g g g g f B g f g g f B g f g f f z 0.&.9 f t t f g g f t 0 9 g f t t g f f t 0 g g f g g B B B z z 6.v.",
"9 f ( t f f g f g f p t g g g f f s s p g f g g g g t f s s z.o.9 B f t t 9 0 t B B B g t t t f f g B f g g g B f g g f H | I p.",
"0 t B f f t t f f f g f s f g g t g g p g f f g g g s f g s d.` 9 ` f t 0 t t 0 ( B ( f f g f f t t f f g f z g z s s z t p ,.v.",
"2 t f f t f f f B h g s h h g g h h h s s s g h s f f s s ..6.( : f 0 f 0 g B g g ( g t g f g g g g p H ( f w g p f p s h s #.p.",
"6 t f f f g B B h h s s s h g g h h h g s g g g s h g h s s M.&.> t 9 9 t f f g f B g ( g g t f h f B h g ..B L f I s s ( s p.r.",
"9 t g g g g f f h B s g f c s s g g h g s s s s h s B s p H h.I 0 9 g z B B B o.t 2 9 B ( t g B H s s 0 z t L z H p f c c s v.s ",
"t f g f f f g B g m s s f h s s s s s h g s s s B s g s f ( 4.&.0 z g ` o.2.o.( 0 t 8 9 B >.B g B f p s g t t z c s c h f f p.z.",
"2 0 g f f f f p s g s f s h h g g g g h h h h h f H s h s s &.w > 9 w 8 2 9 2 > 9 9 0 t 8 8 6 g #.c h h B 9 g s ( z c s g 0 0 0 ",
"2 t B s f g g g g h g s h h h g h h h h h h h h s c p s f s n.p * f 8 8 t 8 0 g ( f B m o.g 9 2 p p.c s B B ( B f t s f I g 4.5.",
"* 9 g z g g g f h h g h h h s s h g s g h g h h s p s c s p w.c * 0 , 9 9 B t g f 0 s t 9 g g f 0 5 t g B z B c c ( c s I s 5.r.",
"= 9 f g f g g g s g s h g B s s h s s s s s h B s c s p s | t.c : 9 w t t 0 t t B t s 6 f f t t g f t p s f f t g t s I s s #.#.",
"= t f g g g g z h s s s s g g g p s g z g z s s c s g g p s d.0 : p p g s f t p w f 0 t 0 t b t p w w 0 w ( &.c w t g p h H p 0 ",
"8 9 B f g g f s s s s h c c B B g s g p g f h h s h h f 0 s I i O t f w g f t p B B z B f W t 9 9 t s 0 h p.5.r.>.>.( p f h F s ",
"z B g B t f g f s p f s g s s g g z g g g h g g g h p c p g p.p e m 2 t 0 t f 0 f g s t t w f t f o.g s 0 5 2 ..m.o.9.C.m.5.H.| ",
"t t g f s f g f h s s g s s s g f s f g s h s s f s h s s s n.&.p t f b g g f p t f 9 0 t f B ] 8 w p f c 8 5 7 g L ..B #.&.F.m.",
"0 t g f g f g f h h g h h s g h c z c s H c H c h p s f h s C.>.0 f f e f ( g s g s B p g g ( 9.9 t s p 0 p 5 6 8 = : : 9 - p s ",
"w z f g f t z g s s s s s s s s g g s f g g g s p s H s s h 4.h 2 b e t 9 t g t 7 p f h H >.m B 8 0 ( B h B 0 h p w f f I 6 s F ",
"2 > g t g s s z g h g s s h g s s h s h s c s g f h f s t p #.2 8 8 t 9 t f g f f B s t t t t 0 t t t s g #.g p w t t t p ( h h ",
"2 > f g g z s s g g s f s h c h s s s s c h h h f h c s g p B ..> 9 t t g f t t 0 t s s t g 0 f B t 0 9 7 f | H f ,.g t p c ( B ",
", : f B I L f g s p g s h h B c B s s s h s H h ( B h s s 0 | B 8 8 t b B B s t f z f B g 9 9 z g B s s s H #.s L c s f t w ( h ",
", > f g z z g f g g h s h g g c s B p s s B B h s s p g g s B f ; t 8 t t s t t p f g B f w 9 g B f s s s 7 p t t w t B t t s p ",
"2 * f c ( s f s s g c h p g B s s H h p g s h h s s s s p s 6.9.# 0 t t f t t f t f g f B 2 B 0 t 0 g s p p t s f s f f w f m.,.",
"2 * s f g g f f s H h h g h s g s h p s s g f h s s h s s p u.o.# 8 t f s t w t z f 9 L 9 8 t t t w w s s B f p 0 f t f 0 h C.#.",
"2 : f s B g s f c s g ( s f g s H h s g h c h s c s s p s f M.` * t t g g f z g f B s t 8 0 B t f f p #.4.H | H s p x s d R b.;.",
"8 8 w c c p f f s H h g s f s s h s I s s p g p w p t w 0 t u.&.# 8 8 9 0 9 6 w 9 f p 2 = * 2 z f f w 0 7 7 7 0 0 z i p p d a ;.",
"m.V.d.0.o.o.c s H | I H h c #.H I #.,.#.c H h ( &.9.9.0.2.9.t.9.u.9.,.4.#.,.0 s &...&.t.o.&.V.5.5.9.r.#.| a.c p #.,.d.B.r.#.s.;.",
"d.d.m.N.9.u.c ..5.>.#.>.4.o.9.u.v.d.p.r.4.o.h o.,.u.t.2.>.2.+.z.z.u.v.u.9.2.4.&.r.t.u.2.>.6.z.c.0.m.m.u.r.r.4.;.v.d.r.&.t.;.b.A.",
"= @ X X # @ 2 2 # = # o ; # ; * 2 = 5 5 > 2 : * > : = = . X O # , * o # # @ 8 2 > 2 : # + X # * 9 > 2 6 , > * : > : # : o X o o ",
": 2 9 6 9 t f f f 9 9 t t f f 8 f >.>.s c f 0 f W s s t w > 2 8 # = > : e t f t : > 8 0 B s t 9 f >.,.g ( s p f ( g g f t 8 8 f ",
"o * g t B z 9 t 0 t f f W B t t 0 t w f p s g s t f g g ( g o.#.  # 9 w g f t f 2 f g s t f s f w f 9 g 9 0 w f t 0 f t B B z.u.",
"0 f s g t w w t t t f f t t f g f f f s c w p f g B f t B ( 2.9.X 2 t B B o.W g 9 g t ( g t s g g ..g p ` g g L B ( s p f ( 4.9.",
"f t B f s f s p t t w f s g g p t g f s p f w s w 0 p 7 f p | z.( ( g B g g g o.f f 9 t g t g f h h s c f s g c h ( h p | p v.p.",
"f g g ( t 0 f s c f t z s B o.g ..s I g s B H s g s c s f s #.D.g t f t 0 f g g 0 t f t f B g g s h H s p c H c h s h h p H u.r.",
"s 0 0 w p w 0 w w p p f f p 0 p w w 0 0 7 p 0 p p w t s s s h ,.>.t f t 0 t p 0 s t f f s g t h s p s p c p w s t g w w f g u.9.",
"p c t p p w c Y g 0 p h p h h h g L H g H I | #.&.H h s h s #.z.8 0 t f p f f t g p f f B s g g s g s p h f h | I c s h g p M.d.",
", 2 I w s c t L s w h I | #.p h s h s s p s p g p p s 7 s #.H 6.: 0 t g g g t f s g h H h h g g c c s H s h s g h s p f c ..| p.",
"2 5 d d s c w 6 s p H I c H H p p f f p h h s p p p p s p h 4.2.2 t t f f g f t h h B h h g m h c g s h h c h c H s H f s g d.n.",
"+.d.d.Y c p I 0 s s t w 0 7 s s s g ..h 0 s p H s p h h p w R 5.0 0 g g B B g f s f s p f s g s h h c c h s g B s g h H s B 2.I ",
", 6 ..d.n.t.L z c c t 0 p B s t p p t s 0 s f p s h p w s r.w.n.0 9 g t f g f g m g s s f B h g s p p s c h g s B H c s h | t.u.",
"= : : = , ..n.9.I w p t z L o.g s p >.#.I | h B c g p s f p L I > 9 g t s B t 0 B g g g g B h s h B H ( c s g B s h s s s p s s ",
", # : : : = 5 0 M.C.,.L t ` g f s h H o.H H | H o...g g z z &...2 t t t z g g t f f f f g g h s h s f g h H B B g h p c h s #.h ",
"= 2 * : = = : : > f V.M.+.f f I H I c h 7 p w 0 f c w B t f w >.> 9 t B B z g t g f g f g s m m h h c h h h c B h s h f s h d.5.",
": = = = : > , : : : : g S.H.f f p ( ( H s s B f t g f f g B ..z., 8 s g t B s t B g f g t t f f h s h s H h H h I B h g g 5.5.c ",
"= : 3 , , > 2 , > > # X = &.D.g : 8 5 9 s t p f s c s h p s z c > t f f s f p f f B g g B B B h h c d c d x h s s 0 d s d c p p ",
"= , > , > 2 , 2 > : 2 $ # # 8 S.= 2 t B z p s p 0 H s p s f w ` : 0 t t f f f f g g f f p s h s h h c d d s g s c h d p p H c #.",
": $ : : t r t q 9 2 2 2 # @ # : ( t f z s c c h s h s s p s f L * 8 f f s g g f f f f f t t f t h x d x s B h H H H I p s d c c ",
", , : : E f y t 9 t t t 2 # ; 8 ( z t t t p 0 t 0 s s f p 0 p c : 8 f B B h g f c g c B f t t w s h s h f c g c c s p B d c s s ",
"1 4 1 & } u r u y r e B 8 = > 6 6.0.( B B L c ( c B f p B ..N.M.: 2 s g g g s p g g f f f g c ..z g B f c g B s g g B f f c &.z ",
"4 1 2 & E u K C E t s B 2 2 2 s g z t f z c g t 0 s f t s p &.5.> 8 s t f f f t t f g g B z p f f p s p z f g p g c f f g u.d.I ",
"4 1 : 1 u E { K E E s u 2 w t w 9 6 0 w t f s f f f s f t t B ( > 2 f t f f t t f f f f s z f f f p f z B B g z f f B g f t s g ",
"1 1 1 % { E { { { E W y # t t t f w f t g g t f t c g t f f t 9.> > t t z t t f g f c B B I z p s t s B ( g g B g B c s g g s I ",
"< : 1 1 9 { { { E :.K 3 : t s w f t f f t w s g c L c s p p 0 c 2 > f 0 g B g g s f f g f f f t s s h c H h h c h h H s f s x s ",
"1 1 : : 1 E { } } C y : 2 t t t t w w f c c t f z t p c p 0 p s > 2 0 t g &.( ( p t t c z ..I f R &.B g h s c h H | I | g s p w ",
"1 : 1 % : : 9 y y t > 8 9 t w f w t t s w p w c s s p h d h ;.M., > 0 t ( >.B B 0 f s w p I p x p I i s p i s d h s s H p w Z.;.",
"> = & @ $ # $ $ # # > t 9 z f z I z L c z s p p s p s p x c w.B.: > 0 t o.4.( 9 9 f p i s p x s s x i w p p s i p p h s p #.Z.&.",
": = : : $ # X # # # 6 6 g t t t p s c s H I s x d d d w e.i ;.Z.: > s ..4.,.#.8 0 p s i p c i i p d x x d d p I d R d p d x e.B.",
"2 2 9 t w w = O O 9 9 t 9 w 0 t 7 6 p 7 p p p s 0 d p i R i ;.B.* : 0 I ,.p.0 5 : d #.;.0 0 d d p 0 i i x #.d x p c x p p i x n.",
"V.x.c.N.l.S.t X = f c.+.t ,.c.0.w.4.,.n.R t.x I #.=.7.w.R ;.e.e.r.p.6.p.>.D.* o - 7 v.n.0 x ;.;.w.h.h.B.7.A.-.R ;.;.Z.F.j.Z.G.;.",
"8.&.c.u.>.L 2 = > s B f s 5.2.>.t.t.v.h.6.4.=.e.e.h.D.h.j.j.7.B.h.r.m.C.u.v.0 5 0 p &.d R h.t.7.n.;.e.;.-.R d R ;.#.B.#.e.;.e.;."
};
