/* XPM */
static char *result[] = {
/* columns rows colors chars-per-pixel */
"64 64 229 2 ",
"   c #080C0A",
".  c #10090F",
"X  c #1A120C",
"o  c #100C15",
"O  c #061314",
"+  c #0B1413",
"@  c #0A1C12",
"#  c #121316",
"$  c #1C1413",
"%  c #1C1A15",
"&  c #161B19",
"*  c #2D0E06",
"=  c #2B160F",
"-  c #37150E",
";  c #211615",
":  c #291616",
">  c #231917",
",  c #251C1A",
"<  c #291E1D",
"1  c #351919",
"2  c #09201D",
"3  c #18261E",
"4  c #262317",
"5  c #26201D",
"6  c #2A201E",
"7  c #35231C",
"8  c #171F21",
"9  c #221E20",
"0  c #3C1C24",
"q  c #052922",
"w  c #192726",
"e  c #152922",
"r  c #0C352D",
"t  c #18382B",
"y  c #183933",
"u  c #262121",
"i  c #2D2322",
"p  c #222B27",
"a  c #2D2825",
"s  c #2A2B29",
"d  c #312625",
"f  c #332927",
"g  c #312728",
"h  c #352B2A",
"j  c #392E2D",
"k  c #23342D",
"l  c #2C312E",
"z  c #21382F",
"x  c #31312D",
"c  c #3C302F",
"v  c #322E31",
"b  c #2C3533",
"n  c #283935",
"m  c #2D3934",
"M  c #2C3A3C",
"N  c #353433",
"B  c #3E3332",
"V  c #373937",
"C  c #3D3939",
"Z  c #4C0F0B",
"A  c #5A1208",
"S  c #46161B",
"D  c #591717",
"F  c #681709",
"G  c #6D1516",
"H  c #751B17",
"J  c #57271E",
"K  c #6A2419",
"L  c #752215",
"P  c #491C22",
"I  c #6C1729",
"U  c #492824",
"Y  c #552B27",
"T  c #4B3429",
"R  c #543228",
"E  c #423635",
"W  c #453837",
"Q  c #483A36",
"!  c #423738",
"~  c #4D3539",
"^  c #453A39",
"/  c #493C3B",
"(  c #593136",
")  c #78272B",
"_  c #6B372C",
"`  c #743D2F",
"'  c #792638",
"]  c #773D34",
"[  c #16423B",
"{  c #1D4B3D",
"}  c #224A3D",
"|  c #32453D",
" . c #384D3F",
".. c #44413B",
"X. c #4C403F",
"o. c #51423E",
"O. c #7E4131",
"+. c #1D4840",
"@. c #165245",
"#. c #224441",
"$. c #264A41",
"%. c #3E4443",
"&. c #304E4E",
"*. c #285447",
"=. c #365349",
"-. c #295651",
";. c #2C5A54",
":. c #395E54",
">. c #2B665A",
",. c #3B675A",
"<. c #326C5D",
"1. c #26715D",
"2. c #377365",
"3. c #3E7B6E",
"4. c #444443",
"5. c #4C4342",
"6. c #484A48",
"7. c #524543",
"8. c #554946",
"9. c #5A4946",
"0. c #524748",
"q. c #564A49",
"w. c #5A4D4B",
"e. c #42524D",
"r. c #53514D",
"t. c #5D504E",
"y. c #5C594C",
"u. c #4B5A54",
"i. c #555452",
"p. c #5E5251",
"a. c #5B5A58",
"s. c #61524E",
"d. c #6A5B49",
"f. c #625553",
"g. c #655856",
"h. c #695A57",
"j. c #625959",
"k. c #6B5D5A",
"l. c #725B55",
"z. c #416756",
"x. c #5A6759",
"c. c #68615B",
"v. c #756B5D",
"b. c #416F64",
"n. c #586661",
"m. c #457A6E",
"M. c #59796A",
"N. c #6A6864",
"B. c #736664",
"V. c #746C67",
"C. c #66766A",
"Z. c #797566",
"A. c #6D7D71",
"S. c #757875",
"D. c #A90A1D",
"F. c #B2141C",
"G. c #8D1029",
"H. c #A6102C",
"J. c #B51B29",
"K. c #862328",
"L. c #972424",
"P. c #982637",
"I. c #96343D",
"U. c #A4282B",
"Y. c #BB2629",
"T. c #B72C35",
"R. c #BB3942",
"E. c #87564F",
"W. c #886B66",
"Q. c #827566",
"!. c #837C77",
"~. c #36906F",
"^. c #2C8974",
"/. c #3B8277",
"(. c #3D8475",
"). c #358D73",
"_. c #3C8D74",
"`. c #3C8D7C",
"'. c #2F9477",
"]. c #2B9A76",
"[. c #2D9A7A",
"{. c #349477",
"}. c #3D9374",
"|. c #34947C",
" X c #3B937D",
".X c #34997B",
"XX c #3B9A7D",
"oX c #448174",
"OX c #448D72",
"+X c #42867B",
"@X c #448C7A",
"#X c #4A8B7E",
"$X c #5B8370",
"%X c #44927C",
"&X c #46977F",
"*X c #69877A",
"=X c #7E847C",
"-X c #7B977F",
";X c #828979",
":X c #3B8E83",
">X c #359582",
",X c #3B9483",
"<X c #349A83",
"1X c #3B9B84",
"2X c #399589",
"3X c #37A183",
"4X c #498F82",
"5X c #429483",
"6X c #4A9685",
"7X c #439A85",
"8X c #429D8A",
"9X c #559788",
"0X c #679485",
"qX c #759688",
"wX c #6E9F95",
"eX c #50A192",
"rX c #79A695",
"tX c #8A958D",
"yX c #B79889",
"uX c #B49B91",
"iX c #90A595",
"pX c #B2A491",
"aX c #BEA493",
"sX c #B8A997",
"dX c #B6B3A7",
"fX c #C2A794",
"gX c #C3A995",
"hX c #C6AC9A",
"jX c #CAB6A4",
/* pixels */
"i 6 6 i f f h j g g i d i < i i j c B c h h u u i i i i , , < < i < , < , < < i > , % ; , < , ; f j j j h c i a i i 6 i , > > ; ",
"> , < < i i f f d d < i g j j h c E ! ! B B j j j j h h d i d < ; , , i i h j h c h h h j c B j B C ! B c B c B B B j j h f c / ",
"; , i f j h B W ^ W E E B E B B C ! ^ ^ ! ^ ! ^ ^ ^ ! ^ ^ ^ q./ , j j B B B E E ^ ^ W B B B B B C ! E ^ Q ^ ^ ! / / ! ..^ B w.f.",
"f j E E B C ! ^ ^ ! E C ! ! E ! ! ^ ! B ! ^ ^ ^ ^ ^ ! ! C ! t.5.i ^ B B B B B B E E E E B E E W ^ ! B B C B ! ^ / ! ! ! ^ ^ p.f.",
"h E / ^ ! ! ! ! ^ ! ! ! ! ^ ! ! ^ ^ ^ ! ! ^ ^ ^ ^ ^ ! E ! ! w.5.B ^ ! ! ! / ^ B B x j B ! B W C ! E E B ! E C Q / ! ! E ! ^ w.g.",
"j B ^ ^ / ! ! ! ^ ! ^ ! ^ ^ ^ ^ ^ ^ ^ ! ^ ^ ^ ^ ^ ! ! ! ! / t.7.c C B B ! ! ^ C B c j E W B B ! ! E B B ^ ! ! ^ ^ / ^ ^ / X.w.g.",
"j B / ! C ! ! ! ! ! E B ^ ^ ^ ! E E ^ E ^ ! ! ^ ^ ^ E ! ! / p.7.x ^ W B B j c B ^ ^ ^ ^ B B B W ! ! ^ E ^ ^ ! ^ C ^ ^ ^ / / 7.f.",
"j B / C ! B B ! ! ! ^ ! ^ ! ^ ! E ^ ^ E ^ ! ! ^ ^ ^ E ! ^ / p.5.j / E B j c B B X...X.! ! ! W ! B E ! ! ^ W ^ ^ ^ ^ ^ ^ E ^ q.g.",
"d c ! ! C ! ! ! ^ ^ ^ Q ^ ^ ^ ^ ^ / ^ Q E ^ ~ ^ W ! ! W ^ X.t.X.i B B B B E ! ^ ^ X.^ C ^ W ! ! ^ ^ W / X.! E ^ ! W W W ^ / 8.f.",
"g c C ! ! ^ ^ ^ / / Q E W ^ ^ ^ ~ ^ / E E ^ ^ ^ ^ ^ ^ ^ W / f.8.f j j j B ! ! / ! ^ ^ / / W B ^ ^ ! ^ ^ ^ X./ / ^ ^ W W / / f.w.",
"h E ! ^ ^ ^ W ! ^ / E ^ ^ / ^ ~ ^ ^ ^ ^ Q W W W / W / W W X.s.X.j c E ^ / / / 5.B f j ! ..! ^ ^ / ^ W B ^ W ^ ../ W ! / ^ / p.7.",
"c E ^ ! ! ! ^ ^ ^ / E ^ W ^ E E ^ E ^ Q ^ Q W W ^ W W W ^ X.w.X.c W ^ / X.7.5.^ B j h c ^ 5.^ ^ / ! B W W B W ^ / ^ / ^ ! ^ w.t.",
"i j E ^ ! ! ! E E ^ E ! W ^ ^ ^ ^ ^ ~ ^ / ^ ^ ^ ^ / E / W ^ 0.E i j j h h j h d h j c B j j h W 5./ / / ^ B ! ^ / / / W ^ B E E ",
"9 E ^ ^ ! ^ ^ ^ ^ / ^ ~ ^ ^ ~ ^ ^ ^ / / ^ ^ / ^ ^ / E E W ^ t.E , j f d j h j E ^ B W / / B j j W 8./ ^ ..^ X.^ ^ E E ^ / ^ 8.9.",
": h W ^ W ^ ^ ^ ^ ^ ^ ^ ^ ^ ^ E ^ ^ ! ^ B v h g 6 6 7 f c X.t.Q < h i h j E B ! C B W B B ! ! B j h E E / ^ ^ / ^ / / W / / 9.w.",
", g E ^ W ^ ^ ^ Q ^ Q ^ ^ / Q ^ ^ ^ E ! s 9 > : = - * * = Q t.Q i h j B B j B B ! B E h B B B B E E B E W ^ ! E ! E E / ^ ^ 7.8.",
"< j ! ! ^ ^ ^ ^ ~ E ^ ^ ^ ^ E / E E ^ ^ j 0 ( I ' I.I.K.Y 1 t.B 9 c E W ! ! B B B E B B B E ^ B W j E j E / 8./ E E ^ ! ^ / ^ B ",
"h j ^ ! ^ ! ^ ^ W W E ^ ~ ^ ^ / ^ Q ^ / / 0 I P.H.J.T.R.R.) J ( 0 B B c ! ! B ! ^ ^ ^ ^ B ^ B v h E E E Q 9.8.w.q.7.5./ / X./ ^ ",
"! ! ^ ^ B C ^ ! Q W ^ E ^ E / / ^ ^ ^ ^ ~ ~ S I D.D.F.F.T.U.L.H P ~ ! C c B B B W ! E B B B C B E Q E E j h j / t.7.t.f.f.w.B.w.",
"B E ^ W W W ^ ! ^ ^ E ^ E / E ^ ^ ^ ! ^ 5.~ S I G.D.F.Y.Y.Y.Y.L.I Z 0 ~ ! ! B B ! ! j B B ! / 5.h E E E ~ h f j ^ / X.X.7.q.B.g.",
"j B ! ! ^ ! ^ ! ^ ^ ^ ^ / E ^ ^ / / ^ / 4.8 0 P ) K.L.L.U.U.U.U.P.' 0 : s b p M V V N V X./ 5.0.h E E E c E h h f 6 i d h d ~ / ",
"c C W W W B ^ ^ ~ ^ E ^ E E ~ W ^ ^ ^ ^ v b u.u.c.y.y.d.d.l.l.l.k.N.n.,.:.;.;.-.-.-.;.:.e.6./ ^ h j / / W W j E B B B B ^ j W ~ ",
"i d W E ^ ^ ^ ^ ^ ^ ^ W Q ^ ^ ^ E ^ ^ ! b $.@X}.}.}.}.OX%X}.&X&X&X7X:X,X8X5X,X>X,X X5X4X#.w j B E j E E W / / / B B B B W ^ ^ / ",
"i 6 B W ^ ^ W W ^ W W W ^ ^ / ^ ^ ^ ^ ^ l $.).[.].]..XXX3XXX.X1X3X3X3X1X8X8X1X>X<X>X,X#X[ O j ! E E j j j / / / ^ 5.^ B E ^ 5./ ",
"< 6 B / / / ! ^ ^ E ^ E ^ ^ ~ / ^ ^ Q W x } ~.].].].XX%X`.%X5X1X1X3X1X|.`.1X1X>X|.`.`.m.y O h ! ^ ^ W E W ^ / E / / ^ ! B B X.^ ",
"6 6 B ^ / / ^ ! ^ ^ / / ^ ^ / / ^ ^ W W x { ~.].]..X%X,.+.+.>.%X8X6X/.@.>.eX1X^.:X+X>.#.8 o j ! ^ E W W E T E E B B B ^ B B / ^ ",
"i , B / / ^ ! ! W / / E Q ^ / ^ ^ / ~ E x { ~.].{. X@X} O O r m.6X6Xm.r -.eX8X^.}.4X-.q O . N j B j ^ ^ E E E E E E B ! B ^ p.0.",
"9 , E ! ^ ^ ! ! ^ ~ ^ / ^ ^ E Q ^ ^ E E x *.OX.X}.`.4XM o o 3 b.6X&XoX[ ;.eX8X^. XXX1.@.@ o B B B c c Q ^ ^ E E B E ! B c X.k.9.",
"d < B ^ ^ ^ ^ ! / W / / ^ ! ^ ^ ~ / / ^ x $.OX}.|. X#X&.& # z m.5X1X@X2.3.6X8X|.XX|.).(.y   B C ! C E / 7./ / W E E Q E ^ 7.f.9.",
"h j B / / ^ ! ! / / / / E ! E ^ / / / ^ N =.OX}..X.X:X3.&.$.,.OX1X<X>X X,X,X1X|.|..X'.).y O h ^ ^ ^ E E j E E E E / Q ^ ^ ~ / 9.",
"g.g.f.t.0.7./ ^ / / o.X./ / 7.7.X.8.q.7...| <.OXXX<X>X:X/.oX%X,X|.1X|.,X,X<X>X X|.[.|.).y + q.w.w.w.w.7.7.9./ Q / w.f.g.w.9.s.s.",
"t.t.p.p.q.q./ / 7.7./ 5.7.X.0.w.w.w.w.w.8.V } m.,X<X<X2X2X:X>X<X,X2X1X,X1X,X,X,X,X|.>X@Xy o 0.t.w.f.f.w.9.w.7.7.w.w.9.8.q.7.s.g.",
"6 , , , < 9 d d 6 6 , , 0 9 9 i h h j j f N n 2.`.>X>X:X:X>X2X2X2X:X`.`.(._.+X(.3./.3.m.y o 9 0 c j c c h d i d f d i i , > , < ",
"> < d d h j B B B h h j c E c h B / 5.E W / n ,.|.|.>X,X:X>X:X:X4Xm.>.*.} =.$.[ y [ +.#.w 8 v v B X./ ! ^ B B B E E B B c f h B ",
"; < B B ^ E j B j B B C ^ ^ B B j E B ! W 5.M 2.).|.|.|.>X>X,X#X*X=XZ.V.v.Z.r.@ M n.u.6.4.4.! ! B ^ B ! B c B ! E B W B ! / t.p.",
"h B W E E B j B B B W B C B ! E E E ! ! ^ 5.M <.)..X[.>X>X:X:X9XtXsXsXfXhXjX!.4 a.!.j.p.0.B ! ! ^ / ^ ^ / ^ E / ^ / ! W ! X.t.p.",
"E B ^ ! E E E E B B B B E ^ / E E ! ! W W 6.M <.|..X<X<X,X,X5X0XpXfXyXyXgXjXQ.4 r.C c B W E W W ^ / ^ ^ ^ ^ / / / / ^ E X./ f.j.",
"E E ^ / E j E E E E B ^ E / / / / ^ ^ W X.4.e <.|.>X<X<X>X1X5XwXdXgXfXfXhXjXv.4 i.B B B ! ^ W ^ W ^ / ^ W ^ ~ ^ ^ ^ ^ ^ ^ X.p.f.",
"E B B B E c c B B E ! ! E E E E E E B B | 4 @ <.@X5X5X5X5X5X4XrXdXhXaXfXhXhXW.6 k.B E ! W ^ W ^ W ! ^ E ^ W E W E ^ E c ! / p.f.",
"E E B B E B Q ~ E B E ^ Q / E / E / ..B 4 @ 2 z.$XM.M.M.m.M.C.;XuXuXyXyXyXfXW.f N.E ! ! ^ ^ ^ ^ W ~ E E ^ W ~ / ~ / E ^ ^ / f.g.",
"i f W E E W E / E E Q / o.o./ E W / 5.m x.n.n.x...T R R T T R J R _ _ ` O.R U 7 B.W Q / / ^ ^ ^ / / ^ / Q E W / / W E ^ / o.9.g.",
"f h / Q W Q E h E E / / / / / E E E M | *XA.v...S A G G F A F F A A A A Z Z - = V.W ^ / ^ ^ / ^ / ^ ^ / / / / / / ^ / E ^ / t.g.",
"/ w.t.o.X./ W E E W B B c c E E E Q N 3 3 3 X X - D G H L L F F L K K K J R T 7 V.W W W ! ^ ^ ^ E ^ ^ ~ / E / ^ ^ / / / ^ X.w.7.",
"d h X.w.t.w.o.Q / W B c E W Q E E E V C  .l   % y.v.E.O.] ` O.O.O._ _ o.Q.-XC.V S.^ W W ^ ~ ^ ^ E Q Q E / / ^ ^ / / / E / 5.w.t.",
", , 6 7 f X.w.w.5.^ W E ^ / 5.^ W W 5.w.w.6.& [ rXiXc.7 = S o.l.U ; 4 x.-X$X .m tXE ^ ^ ^ ^ ^ ^ ^ ~ / X./ ^ / ^ ^ ^ E ~ ^ W / / ",
", ; , , , 6 f E p.f.9.5.! X.^ ^ W / X.5.X.0.p } rX0Xt 3 l X E p.%   t -X$Xz 3 u.a.! ! ! ^ ^ ^ ^ ^ ^ ^ / / / / ^ ^ ^ ^ ^ ^ ^ 7.~ ",
", 4 > > > > < < f ^ p.f.q.5.! / / X./ ^ c r.m  .qX=.z C.;Xr.h s +   | tXu.t ..6./ ! ^ ! ^ ^ ^ ^ ^ ^ ^ / / / / / ^ ^ ^ W ^ / t.0.",
", , > > , < < , , 6 i ^ g.N.5.^ E ^ X./ Q y.m n e.$.N.a.X.c.V.a.V + k u.m ....W ^ ^ ! ^ E B ! ^ ~ ^ ^ ^ / / / / ~ ^ ^ ^ / 8.q.X.",
"; , i 4 < < i < < , > % i 7.f.X.i f h c E i.%.m M =XS.^ W W / X.N.%.p k %./ E E ! / ^ ^ ^ ^ / ^ / / Q ^ / Q / / E E Q W Q / / W ",
"> < < < 6 i i i 6 < , % ; , B q.f a B W ^ 5.q.r.i.S./ W W E E ^ a a.0.i.0.! C ! ^ ^ ! ! W W ^ ^ ^ / / ~ Q ^ ^ E ^ Q Q E E / / o.",
"> , , < c N N j f i i i $ $ % g ! B C ^ ^ ^ W W E / ^ E E E E ^ 9 g B ! ! ! ^ ! ! ^ ! ! B B B B Q / Q / ^ ^ / / ~ / / W W / / ~ ",
"u < > i ! C B B j j B c 9 $ > h X./ E B E W B E E E ^ E E B ^ / i g E ^ / ^ W C ^ ^ ^ ^ ! B E B E Q / E W / / / / / W Q Q / ^ ^ ",
"u a 9 5 4.C V C C B B ! h > 9 j 8.q.X./ / / / / E / ! E / 5.f.p.i d E E ^ ^ ! W ^ ^ ! ! ^ ^ ^ X./ ^ ^ ! ^ ^ ^ ^ ^ ^ ^ ! ^ / 7.X.",
"s u i u ^ ! ^ / ^ B E ^ g 0 d B ^ ^ B ! ^ ^ ^ B E E E B E ^ 8.0.d d E E B W W B C B ^ ^ ^ ^ ^ ! ^ E ^ ^ ^ ^ ! W ^ ^ ^ ! ^ w.t.X.",
"s i , i V 4.5.4.4.4.^ V d h j B j h j B B ! E E E E E E E B / / i d B B C E B B C ! ! ! ^ ^ E C E E E ^ / / ^ ^ ! ^ ^ ^ E ^ ^ / ",
"9 9 u 9 ^ 4.6.0.6.5./ B , j B B B B B B W ^ E E B E / E E B ! 7.d i j B ^ E B E ^ ^ ^ ^ / / ^ W E E E / 5.^ ^ / ^ ^ / W ^ E / ..",
"9 < 9 9 v 4.5.6.5.5.^ a i j B B E B W C E B E E / / / E E E j ^ i < j E E / ^ ^ E E ! ^ ^ ^ W B Q E Q / / / Q / / / / / E ^ / E ",
"i 9 < , i C 5.6.6./ B i a B B B B c B B W W E E W E E / E E E ^ i d h E Q 7.5./ E B B ^ ^ X./ W / 5./ E / E / Q / X.X.X.Q E Q E ",
"u , 9 > , i h B B j i d h B B B E c E E E E E Q W E E Q W Q 9.s.d < h E X.0.X.^ B E E T ! / W / / / E E E E Q Q / ^ Q / E Q g.9.",
", > % $ % % % > % ; i h c ! ! ! / Q Q Q Q E E E Q E Q W / ~ s.g.d < h E 7.q.X.j h B E E E ^ Q W Q Q T E E E E E E W / E E 8.k.w.",
", , , , % ; $ $ $ ; i h B B B B E E Q E / / W Q Q E Q E o.Q 9.h.d < E X.9.w.X.h h E W E E W T E E Q Q Q Q ~ Q / Q X.Q W Q / s.k.",
"h f B B B B , X $ f c B c B B B c c E E W Q W W E Q W W o.Q 9.d.d d c 5.q.p.B i < B 7.7.E c W Q E E W Q / 7.X.Q Q / o./ / Q 9.h.",
"g.p.p.g.f.f.h $ , E q.5.C 7.t.t.w.w.w.s.8.w.X.X.o.9.w.9.o.9.s.s.w.w.w.f.w.h.d ; < T t.s.E Q 9.9.w.s.s.h.s.h.8.o.9.9.l.B.h.l.B.s.",
"p.w.a.g.w.X.f > 6 E X.^ ^ q.t.q.s.s.f.g.s.w.9.w.s.h.B.k.h.h.s.k.h.f.h.B.g.f.j d h E 7.o.o.s.s.s.h.s.s.9.7.9./ o.9.9.k.w.s.s.s.9."
};
