/* XPM */
static char *c380d97df7914973fdcd3de1ee314688SNeY2JGmhOpZbSU5[] = {
/* columns rows colors chars-per-pixel */
"64 64 210 2 ",
"   c #050404",
".  c #0B0503",
"X  c #0B0806",
"o  c #060609",
"O  c #0A070A",
"+  c #07090A",
"@  c #0C0A0C",
"#  c #070906",
"$  c #120602",
"%  c #130A05",
"&  c #1A0C05",
"*  c #120D0D",
"=  c #190D0B",
"-  c #10070A",
";  c #0E100F",
":  c #13110E",
">  c #1C110C",
",  c #141007",
"<  c #0E0D11",
"1  c #120E11",
"2  c #0E1113",
"3  c #0F1219",
"4  c #151314",
"5  c #191515",
"6  c #1A1816",
"7  c #161519",
"8  c #1A1619",
"9  c #161A1B",
"0  c #1C1A1B",
"q  c #22150D",
"w  c #27190F",
"e  c #281A0F",
"r  c #221713",
"t  c #241A14",
"y  c #2A1B12",
"u  c #231D1D",
"i  c #291E1B",
"p  c #301F17",
"a  c #1F201B",
"s  c #2E2016",
"d  c #24211E",
"f  c #2A211D",
"g  c #31221A",
"h  c #39251C",
"j  c #1D1C21",
"k  c #161920",
"l  c #221E21",
"z  c #2B1F23",
"x  c #1C2122",
"c  c #252223",
"v  c #2B2424",
"b  c #2D2926",
"n  c #262529",
"m  c #2B2629",
"M  c #2D2A2C",
"N  c #26292E",
"B  c #332624",
"V  c #322925",
"C  c #382A26",
"Z  c #312629",
"A  c #342C2C",
"S  c #3A2D2C",
"D  c #2E302F",
"F  c #34312E",
"G  c #3C312E",
"H  c #262930",
"J  c #2D2D32",
"K  c #332E31",
"L  c #3A2F31",
"P  c #2F3035",
"I  c #343133",
"U  c #3B3333",
"Y  c #3D3936",
"T  c #353539",
"R  c #3B3639",
"E  c #36393A",
"W  c #3C3B3C",
"Q  c #363837",
"!  c #42342D",
"~  c #45352B",
"^  c #433533",
"/  c #443935",
"(  c #4B3B35",
")  c #413738",
"_  c #443B3C",
"`  c #4C3E3B",
"'  c #483632",
"]  c #513D37",
"[  c #513F3B",
"{  c #3E403F",
"}  c #4D403C",
"|  c #44403F",
" . c #53433D",
".. c #59463F",
"X. c #59483E",
"o. c #3D3E41",
"O. c #453E40",
"+. c #4B3F41",
"@. c #444443",
"#. c #4B4343",
"$. c #4E4A47",
"%. c #534543",
"&. c #594745",
"*. c #564844",
"=. c #5B4B44",
"-. c #554B4B",
";. c #5B4D4A",
":. c #504549",
">. c #5F5146",
",. c #5E514D",
"<. c #53504B",
"1. c #5D4E51",
"2. c #5C5252",
"3. c #614E45",
"4. c #614F4B",
"5. c #63524C",
"6. c #6A554C",
"7. c #645047",
"8. c #645453",
"9. c #695654",
"0. c #655954",
"q. c #6B5B54",
"w. c #655A5A",
"e. c #6A5C59",
"r. c #705F59",
"t. c #705D56",
"y. c #6B615A",
"u. c #72625C",
"i. c #6F6563",
"p. c #726561",
"a. c #776966",
"s. c #796A65",
"d. c #766B6A",
"f. c #7C6E69",
"g. c #7C706A",
"h. c #7E7472",
"j. c #85746C",
"k. c #8C796E",
"l. c #8A766B",
"z. c #9D7F6C",
"x. c #8C7D73",
"c. c #847874",
"v. c #927E72",
"b. c #816E68",
"n. c #9C826C",
"m. c #95836F",
"M. c #8E837D",
"N. c #948274",
"B. c #9D8473",
"V. c #9B8876",
"C. c #94847A",
"Z. c #9C877A",
"A. c #9D8A7A",
"S. c #97897E",
"D. c #A1846F",
"F. c #A38673",
"G. c #A48975",
"H. c #AA8B76",
"J. c #A58B7A",
"K. c #AB8E7A",
"L. c #A68777",
"P. c #B08D77",
"I. c #B18E79",
"U. c #A5917E",
"Y. c #AC917B",
"T. c #B2927C",
"R. c #B29077",
"E. c #8B8180",
"W. c #9C8B82",
"Q. c #9C9187",
"!. c #A28E81",
"~. c #A58E81",
"^. c #A58E81",
"/. c #A98F81",
"(. c #A28F89",
"). c #A69083",
"_. c #A69283",
"`. c #AB9385",
"'. c #A5948B",
"]. c #AB9689",
"[. c #A39A8C",
"{. c #AD9A8D",
"}. c #B49682",
"|. c #B59B85",
" X c #BA9B85",
".X c #B69C8A",
"XX c #BA9E8A",
"oX c #AA9B92",
"OX c #B69E90",
"+X c #B7A18D",
"@X c #BCA28D",
"#X c #BCA392",
"$X c #BDA896",
"%X c #BBA69C",
"&X c #B7A69A",
"*X c #BDADA3",
"=X c #B5A8A2",
"-X c #BFB3A7",
";X c #C09F8C",
":X c #C1A38D",
">X c #C2A692",
",X c #C4A995",
"<X c #C9AB96",
"1X c #C3AC9B",
"2X c #CBAE9A",
"3X c #CAB09F",
"4X c #C4B2A3",
"5X c #C8B5A9",
"6X c #C9B5AA",
"7X c #D5C2B7",
/* pixels */
"c 0 c       . . @ @ O . o   @ @ @ X @ +                           o   o o     O + o     X   + o < 2 @ @ @ < < 2 7 6 2 @ @ @ X a ",
"7 4 7 X   . . X % * X X X . X X X X @ X . X . . . . . .     . X . O   o O X * @ o o   X . . X @ @ @ @ : @ X X 4 4 4 1 7   < X X ",
"4 @ X   * % . . % % $ % % % % . % % % . . $ $ $ . . . . . . . % % % X X . . * .   X X   . % X * % * % : * * % * * X X . O <   # ",
"@ 1 * * } ` }  . .X.=.=.>.>.>.=.=.=.=. . .X.=.=.=.=.=.X.=. ...=.=.=.=.,.0.y.d.y.X   X X V A S C S G ! ~ ! G C V V G ) u   .     ",
"4 * X r x.W.A.A.J.J.).^.J.A.A.J.J.^.!.!.).).^.).).).).^.^.^.).].].].].].].[.&X[.5     u =X&X(.'.!.A.A._.).!.!.'.'.S.6Xc.  @   X ",
"< 4 * r x.Z.B.J.K.J.L.F.F.B.n.z.B.B.B.B.B.B.B.B.B.B.B.F.G.F.F.J.F.G.J.G.J.U.{.Q.v X @ d *X{.^.J.J.F.F.H.G.J.`.`.`.!.%XM.=     @ ",
"< 1 % > x.J.J.K.K.H.H.G.H.K.L.G.L.J.F.B.F.F.G.G.B.F.G.J.J.G.B.F.J.F.F.F.K.Y._.x.v X X d oX!.J.F.F.F.G.G.D.F.F.B.F.`.+Xf.5     4 ",
"4 1 = > k.J.Y.K.I.P.T.H.H.H.H.L.L.Y.F.F.H.G.F.G.G.G.F.G.L.F.F.H.J.H.H.G.H.Y.U.C.V @ X V oXJ.F.F.H.D.D.H.G.H.H.H.H.K..Xj.5     8 ",
"< 4 = q v.K.H.I.H.H.H.T.K.H.H.L.H.G.H.G.F.H.F.H.F.F.F.B.J.J.G.J.J.J.K.H.H.H.J.C.v @ O b [.U.G.H.L.L.G.G.G.H.H.K.K.L.).k.> . X 4 ",
"+ 4 > w N.J.F.H.P.H.H.Y.L.L.H.L.L.F.G.F.F.F.F.G.F.G.F.G.G.G.n.B.G.G.G.F.F.F.F.N.u @ X b S.V.H.L.F.F.H.F.F.n.D.z.F.D.J.l.= . + 2 ",
"1 4 = y Z.K.H.I.K.H.H.K.L.L.L.L.L.G.G.G.F.L.G.G.F.L.G.J.G.J.B.F.G.A.G.F.L.F.J.C.u X . A S.m.n.n.n.n.n.n.n.F.F.F.F.D.K.l.% X X 9 ",
"< 1 = p ^.}.K.I.K.K.K.K.K.K.J.L.L.L.J.J.L.L.G.G.F.L.G.J.G.J.F.J.J.J.J.G.L.J./.C.t = X U ].).G.L.F.F.D.L.G.J.L.L.H.F.K.l.= X X 9 ",
"@ * % g ^.K.H.I.I.Y.K.K.K.K.K.H.L.H.K.K.H.L.G.G.L.L.J.L.L.L.L.J.L.L.G.G.G.J.).C.t 6 = S ).J.G.F.G.G.H.G.J.F.L.F.H.F./.l.= X + x ",
"< * = g J.K.K.T.K.K.K.H.K.K.K.H.G.H.H.H.L.G.G.F.L.G.K.J.H.L.L.L.L.L.G.G.F.G.).N.i = % C Z.J.K.H.F.F.F.D.F.F.F.F.F.F./.k.> X + x ",
"1 * & h `.}.T.R.T.T.Y.K.T.K.P.H.H.H.H.L.L.G.H.L.F.F.L.H.L.L.L.L.L.H.L.L.G.J.].C.v = = B J.K.H.L.D.F.F.H.H.K.H.F.H.H.`.k.= X   0 ",
"1 * & h `.T.T.T.T.T.T.K.}.T.I.H.Y.Y.H.H.H.H.Y.Y.K.Y.Y.Y.H.Y.K.Y.K.K.K.Y.K.`.OXW.u = = g ~..X}.I.H.H.T.T.}.}.}.}.|.|.XXx.& %   j ",
"@ 5 $ h .X.X:X X X|.}.}..X X}.T.|.|.}.}.}.|.}.}.|.|.}.|.|.|. X X X X|.|.XXOX%XQ.i > = G &X%XXX.XXX XXXXX X X X@X X@X1XN.% X @ 9 ",
"X = $ ~ 1X<X2X<X<X;XXXXXXX.XXX@XXXXXXXXXXX@X@XXX@XXXXX X XXX@XXX XXX:X@X#X#X*X'.f = 5 } 7X4X>X>X>XXXXXXX:X:X:X:X>X@X$XN.% : o k ",
"@ 4 % ~ %X1X2X2X<X>XXXXXXXXXXX@XXXXXXX.X@X@X@XXX.X.XXXXXXXXXXX|.|.|. X|.@X$X*XQ.B % : / 6X5X2X@X:X@X:X@XXXXXXX@X>X,X1XC.% X < 9 ",
"@ 4 % ( 4X1X,X,X,X#X.X|..XXX@XXX.X|.|.|..X.X.X|..X|..X|..X|.}.|.@X|.|.|.+X$X4X[.B . , / -X4X1X,X:XXXXXXXXXXXXXXX@X,X1XC.= . @ 9 ",
"* 1 % ` 6X6X4X5X3X1X$X#XOXXXXX@X>X@X@X@X@X@X@X@X#X@X@X@X@X|.|.XX@X+X@X#X#X#X5X6XV . % G *X5X1X<X<X:X>X:X@X>X>X<X2X$X7XoX$ % . 0 ",
"* 1 % ^ '.'.^.`.].{.{.].).)./.J.U.J.A.A.V.A.V.V.A.V.V.J.A.m.V.V.N.Z.Z.N.N.v.S.C.> % : i y.x.v.N.G.F.J.L.N.N.N.N.N.v.].j.$ * 1 1 ",
"1 1 X 5 ! w & & q w y e y y y w w q > > > > > > > q > t r > t t t y y y s g i 6 % X X * 6 v t y g s g g g s y t y B v 6 X 4 < < ",
"1 1 4 0 V t B V B f t t f f t t f u d d v c v v v b c c c u A A M V v v V v d c 1 7 4 4 m u u t u u v v v M A A b M v u 7 4 + 3 ",
"1 7 4 R $.#.#.-.-.$.-.#.-.#.#.@.@.@.@.@.@.@.@.@.@.W @.@.@.W W o.W O.R R W R o.T P N H H E T W W W W W E T T W W W W @.J 0 7 9 9 ",
"1 8 0 K R I I I R T I I I T T E W W W W W { W W W Q Q Q E W Q T T T I I I K I J P J J J T P T E o.o.o.W E Q E Q W T W M c 0 0 0 ",
"4 0 u m I I E I T T I T T T P I E E T T T T I I J I I I J J K I T T T T I K M K J J P J I J I I J J M J I D P I R U R S v u d d ",
"4 8 0 c m m c l j 0 j 0 j 0 j x 0 0 8 8 8 8 7 7 0 8 0 0 0 0 j l j j j l c c l c n n n M J M J M M m c c m m m M v v v c u 0 0 4 ",
"7 5 4 @ o @ @ + + o + o @ o + < X X O O o o       X O X @ < @ @ @ X o o @ @ @ 4 4 4 2 2 2 ; @ @ @ < @ @ < < < * 1 1 1 4 4 7 5 @ ",
"* 7 8 @ < < 4 < < 1 < 4 @ * X X @ @ @ @ @ X X X   @ @ @ @ @ < < @ < @ X X X @ @ o @ @ @ X X X 1 @ < < < 4 4 4 1 1 @ @ 1 4 4 @ @ ",
"4 6 5 O 1 @ 1 @ O - . X X * X X @ O O @ * 1 1 * 1 1 * @ @ O + 1 @ 1 * 1 1 @ 1 1 1 * 1 @ * O * * 1 * * 1 1 * * * 1 * < 1 < 4 X @ ",
"4 0 u M _ O.O.O.` +.` ` } ` ) U ) R U R Y R U U U U I A u @ 1 c L U A A Z z Z A U S L S R U ) ) _ U U ) ) ) ) ) ) #.:.I 4 @ o 4 ",
"4 0 0 _ 8.8.w.e.9.e.e.8.;.;.=.;.,.-.;.;.;.8.8.8.8.w.w.-.K 4 0 _ 1.8.8.8.e.8.8.8.5.;.=.;.5.5.8.0.9.q.q.q.r.q.u.u.u.q.a.;.6 * @ 7 ",
"1 0 u ) 1.;.;.&.&.&.%.%.=.=.=.%.%.%.%.=.;.;.5.8.8.e.8.-.S 4 0 ) 8.9.9.8.9.8.8.4.;.=.=.3.5.5.5.5.7.7.3.7.=.3.6.6.q.6.q.=.u * X 7 ",
"5 0 l ) ;.;.;.&.;.;.%.%.%.=.=.=.=.%. .=.;.=.;.;.8.8.8.:.L 5 5 S ;.8.8.8.4.4.4.3.;.=.=.3.5.5.=.=.7.3.=.5.....3.7.q.r.5.%.t % 1 8 ",
"8 8 l S +.` [ [ +.%.%.%.%.` ` ` ` ` (  . . . . .%.*.-.#.S 5 5 c _ %.%.%.` ` `  .%.} ` ` [ ` ` ` ` ( ] [ ] ( ] ] [ =.=.` t * 1 1 ",
"8 0 z L _ ^ ^ ^ ^ ^ ^ ) ) ) ^ ^ ^ ^ ^ G G S S S C S S S v 5 5 l Z L S L S L S G ^ G S S S S S G G S ~ ' ( ~ ' ( ( ( ` _ t 4 4 7 ",
"5 5 l L U S S L S U S A S S U U A S G C S S S S S S S A v 5 4 0 l v z v Z S S S S S S S S S S S S S S ! ^ ^ ! ^ ( ^ / G 5 4 4 1 ",
"7 0 u A L S S L S L L L L S A A A G S A S G A A A A A A c 5 4 0 c Z A A L A L S A A A S A A S A A A A S S G S G G ^ / S 6 4 4 1 ",
"1 8 u A L L U U U U L K L U U S A R U G U G U U U S U R M 8 4 4 l A U K U U U S S S S S S S S S S V U U U U U S U ) ) S 6 * 4 0 ",
"7 0 u A U L L U L ) U M K U U U L L U R U U R U U U Y E K c 4 < n K U E I Y U U U K U R Y U U R U U I I U U U U ) ) _ F 0 1 7 0 ",
"0 8 8 M U R U U _ _ W W R U U R Y E Y W R R R R Y Y W E I n 0 7 c K W W R Y Y Y R Y _ _ O.#.O._ O._ @._ _ _ | #._ #.$.R 0 2 4 7 ",
"7 8 l I _ _ R I S K K J m m M v c n M J M m m c m M M m n j 0 0 l M K K K K M K A A I K K K K A A A K I M M K U R R Y A 0 4 4 7 ",
"9 8 0 c v c u 0 5 1 @ 1 4 4 4 4 7 7 7 4 4 4 4 7 1 4 4 4 4 4 1 4 < 1 1 1 4 4 4 4 4 5 0 5 4 4 1 4 4 4 4 7 7 7 7 7 5 4 4 4 @ 2 4 4 ",
"7 7 4 < * % % % X * @ * * X @ 4 1 1 @ X X X     O X O O @ @ @ @ O @ O o @ < @ X * * * @ @ @ @ @ * * * 1 4 4 4 1 : : : * @ 4 < < ",
"7 8 8 1 * % % * * 4 @ @ * @ X X @ < < @ X X X @ O O O O @ @ @ @ @ @ O @ @   O . X X * 1 1 1 @ * * * 1 4 4 7 7 7 4 * * * 1 * @ @ ",
"7 8 4 X * = * 4 * 4 4 5 1 @ * * 1 @ O X @ O . X = = = = = * * 4 1 1 * 1 1 O @ X @ @ * @ X X . O * % X * * @ X X X X X X X X X 4 ",
"8 0 0 0 L ) ) ) _ _ ) R #.2.$.v 1 1 4 M O._ Y U ) R U U G A A U R Y U G R _ #.A 4 4 4 5 c R ) _ U V v v V f t 6 f A A 6 X @ 4 4 ",
"8 5 0 v ;.e.5.8.8.q.e.0.e.e.i.) 8 4 4 Y d.p.p.u.u.q.0.0.0.;.5.8.0.e.u.e.y.p.c.2.u u 0 0 O.E.c.c.f.d.e.u.s.g.s.p.a.g.h.U * : @ 4 ",
"7 0 0 v %.=.&.&...=.=.*.=.=.;.U 0 7 1 A w.8.8.5.5.5.5.5.5.=.=.5.5.5.0.q.u.u.d.*.u 0 0 l O.d.j.s.q.e.5.5.q.u.b.x.j.f.a.U 5 @ @ 8 ",
"8 0 0 v ` ` [ [  . .` ` %.%. .S 0 8 8 v -.2.;.=.=.3.=.=.=.*.` %.;.*.*.=.5.0.0.#.v 5 0 c Y -.8.=.%.=.%. .^ ~  .q.r.0.0.S 5 1 < 7 ",
"8 5 0 v ) ` ( ( ` ` ( ( (  .( A 0 0 0 m #.%.%.} `  .` ` ` } ^ / ` / / ( ( } #.) v 5 0 c Y ) } ^ ) U S S S C S ( *.;.,.A 5 4 4 4 ",
"8 5 0 v U / ^ ^ ~ ! ' ' G ^ ^ A u 0 l v U U U G G S G G G U A A S G G G S G G G l 5 0 c U U G S A V v B S S S ^ %.#.%.S 0 4 4 7 ",
"4 0 5 v L S S S ! S G ^ G G U A 0 8 l m m m Z A S A S G S S A V A A A A A V A A u 8 0 l I U B A v v v Z Z B B S ) _ _ A 0 4 4 7 ",
"1 8 4 i A B A C S S C S U U U v 0 8 l m c v v v v v v A A v v v M v v v b V A m 0 7 8 u I R S A v c c v Z A v S _ #.O.m 8 7 7 4 ",
"4 7 4 u A S A G B G S S ) R G v 8 7 l M M m A A A S A S R v c v v A A M A S U v 0 4 4 0 I Y U v c c v m v v v U _ #.O.m 4 7 0 0 ",
"4 4 4 c S A G U U S S S S U U m 8 1 8 M A M M M A A I A R c 0 c c v m v M A K K 0 4 4 0 A U I M c l c v v v v U ) #.#.c 5 7 7 4 ",
"4 7 7 c S U ) U U G S F S U U A 8 1 0 M I I I I K A I I W m c c c c c c M A K K j 4 4 l I E I M v c v m v v v I R _ @.c 5 0 8 2 ",
"7 0 0 v R _ #._ +.@.@.@._ R R A c l n I E E E R E I T I I c c n M M m m m M m m c 0 l m R R E A I F I I F A A I F U U u 5 0 0 4 ",
"7 7 4 0 c l u u u u u d u u c u 0 8 0 l l u l u 0 0 0 0 0 0 l c 0 0 0 0 0 0 0 8 8 8 0 0 c c c c d d d c d d u d v d u 0 5 0 6 4 ",
"7 7 4 5 0 5 5 0 8 5 4 7 7 5 8 8 7 7 7 7 4 4 7 7 0 5 8 7 7 8 0 7 4 5 7 5 5 5 7 7 5 5 8 5 7 7 7 7 5 7 5 5 6 5 5 5 6 5 6 0 4 0 7 4 ",
"0 0 6 5 0 5 5 8 7 0 0 0 0 0 0 0 5 0 0 0 8 8 5 0 5 8 0 8 5 0 0 7 6 7 7 5 5 7 5 8 5 5 0 5 8 7 7 7 7 6 5 7 6 5 7 6 7 0 0 0 4 5 7 7 ",
"7 7 7 4 7 5 7 7 0 0 0 0 0 0 0 0 8 0 0 0 6 6 5 6 5 6 6 7 5 5 7 5 5 5 5 5 7 7 5 5 5 5 5 5 0 8 0 7 7 7 5 5 5 5 5 6 0 0 0 8 4 7 7 7 ",
"0 7 4 4 5 0 7 7 7 0 0 0 0 0 0 0 0 0 0 8 6 5 5 5 4 : : 5 5 5 7 5 5 5 5 5 7 7 4 4 4 4 5 5 7 4 4 4 4 5 : 4 : : 5 5 7 7 4 4 7 4 4 4 "
};
